<svg xmlns="http://www.w3.org/2000/svg" xmlns:xlink="http://www.w3.org/1999/xlink" width="500" zoomAndPan="magnify" viewBox="0 0 375 374.999991" height="500" preserveAspectRatio="xMidYMid meet" version="1.0"><defs><g/></defs><rect x="-37.5" width="450" fill="#ffffff" y="-37.499999" height="449.999989" fill-opacity="1"/><rect x="-37.5" width="450" fill="#ffffff" y="-37.499999" height="449.999989" fill-opacity="1"/><rect x="-37.5" width="450" fill="#ffffff" y="-37.499999" height="449.999989" fill-opacity="1"/><path stroke-linecap="butt" transform="matrix(0.102808, 0, 0, 0.102549, 60.013397, 107.699503)" fill-opacity="1" fill="#ffffff" fill-rule="nonzero" stroke-linejoin="miter" d="M 1977.915794 917.389625 C 1977.915794 928.588486 1977.117888 939.787347 1975.712054 950.910025 C 1970.50667 989.687033 1956.600314 1027.092752 1936.804655 1060.689335 C 1890.602118 1138.890904 1708.983593 1208.293368 1708.983593 1208.293368 L 1658.297587 1208.293368 C 1623.68368 1208.293368 1602.216218 1194.809026 1593.097296 1160.983895 L 1589.297746 1146.699633 L 1603.584056 1142.890497 C 1618.592282 1138.890904 1635.994224 1126.282663 1647.886818 1116.607456 C 1666.39063 1101.409002 1683.488608 1083.20133 1698.306856 1064.308014 C 1706.513885 1053.718615 1715.708798 1040.615186 1723.801841 1026.292833 C 1721.712088 1027.207026 1719.394362 1028.083127 1717.114632 1028.883046 C 1707.311791 1032.311269 1697.015009 1036.691776 1688.807979 1043.091125 C 1683.412617 1047.395449 1679.385093 1052.385417 1674.711646 1057.299203 C 1664.718827 1067.81242 1654.384049 1073.183302 1640.401703 1076.992438 L 1637.590035 1077.792357 L 1637.590035 1081.601493 L 1447.992454 1081.601493 L 1447.992454 1192.904457 L 1083.501553 1192.904457 L 1083.501553 1081.715767 L 911.381905 1081.715767 L 905.302624 1077.6019 L 901.693051 1075.202144 C 888.698587 1066.517313 879.19971 1056.308828 867.611081 1046.405073 C 853.286774 1034.101563 840.21632 1029.187777 823.194333 1027.58794 C 835.808841 1047.890636 852.792833 1066.098308 871.182658 1083.010874 C 888.318632 1098.780698 906.784449 1113.293508 923.616458 1129.406154 C 936.914886 1142.090578 952.113089 1158.584139 953.7089 1177.89646 L 954.81077 1190.580884 C 893.182057 1205.017511 904.390732 1208.407642 830.109515 1208.407642 C 758.60197 1208.407642 685.384628 1154.394089 641.689795 1101.599459 C 550.918528 991.896332 570.714187 899.410501 592.181649 774.699377 L 601.794512 772.490078 C 610.989425 770.280779 616.384787 767.500109 624.705803 763.690973 L 626.301614 758.205817 L 626.605578 743.083545 L 613.915079 726.018614 L 594.385388 710.782069 C 566.382699 688.993809 561.291301 624.2004 561.291301 590.41336 L 553.996164 564.587416 L 553.996164 525.010489 C 553.996164 484.786009 556.617854 427.191867 589.217999 400.794552 L 590.39586 385.900829 C 593.701469 345.181162 614.598998 316.993552 647.693085 294.900562 L 651.416644 292.386532 L 662.587324 292.386532 C 662.587324 292.386532 664.297121 289.605862 665.588969 287.510837 C 688.500259 249.190925 718.51671 228.202584 764.491274 227.212209 L 783.906978 226.793204 L 781.209297 237.611151 L 866.205247 286.406188 L 871.600609 287.701294 C 879.997616 280.88294 888.584601 274.293134 897.285572 267.817602 C 912.483775 256.504467 928.289906 245.305606 944.400001 235.287578 C 968.983094 219.898667 997.213756 207.290425 1024.114575 196.51057 C 1057.702603 182.988135 1092.506488 171.598818 1127.50035 162.304525 C 1173.816874 150.001015 1225.186799 140.09726 1273.289112 140.09726 C 1313.184394 140.09726 1355.017448 147.296528 1393.810861 156.705095 C 1439.405469 167.789681 1484.582128 182.988135 1527.897006 201.081533 C 1581.204703 223.288798 1636.906116 252.009686 1684.4005 286.901375 L 1796.487247 227.288391 C 1834.59674 228.08831 1879.811394 249.495656 1890.412141 289.110674 C 1905.990299 284.615893 1918.186856 289.491588 1928.407648 299.89053 L 2000.903076 430.315359 L 2007.21033 525.31522 L 2007.21033 554.493204 L 1992.58206 576.091007 L 1992.58206 612.392077 C 1992.58206 632.199586 1989.998365 647.39804 1984.792981 666.291356 C 1981.601358 678.099679 1973.090364 710.286881 1972.102481 722.590392 L 1928.103684 721.600016 C 1958.690067 780.717812 1985.096945 841.892542 1977.915794 917.389625 Z M 1977.915794 917.389625 " stroke="#a86282" stroke-width="0.068" stroke-opacity="1" stroke-miterlimit="2.613"/><path stroke-linecap="butt" transform="matrix(0.102808, 0, 0, 0.102549, 60.013397, 107.699503)" fill-opacity="1" fill="#5e1b13" fill-rule="nonzero" stroke-linejoin="miter" d="M 793.595833 546.989206 L 779.195535 546.989206 C 792.68394 652.616557 952.18908 750.511361 1084.413445 750.511361 L 1476.299107 750.511361 C 1595.908964 750.511361 1764.685007 648.80742 1767.002733 546.989206 C 1727.79137 573.196064 1727.715378 596.393704 1667.682477 622.105375 C 1631.586745 637.60856 1569.198122 648.80742 1519.917949 648.80742 L 1483.898208 648.80742 C 1442.483106 648.80742 1371.811462 590.718091 1287.689409 590.718091 C 1173.094959 590.718091 1120.509177 648.80742 1055.118909 648.80742 L 996.985783 648.80742 C 925.782202 648.693146 807.882143 600.317115 793.595833 546.989206 Z M 793.595833 546.989206 " stroke="#2b2b2a" stroke-width="0.068" stroke-opacity="1" stroke-miterlimit="2.613"/><path stroke-linecap="butt" transform="matrix(0.102808, 0, 0, 0.102549, 60.013397, 107.699503)" fill-opacity="1" fill="#de242f" fill-rule="nonzero" stroke-linejoin="miter" d="M 1810.58358 278.292727 L 1876.011843 292.805537 C 1868.184769 263.703735 1833.114916 242.791576 1796.107292 241.991658 L 1795.005422 257.41866 Z M 1810.58358 278.292727 " stroke="#2b2b2a" stroke-width="0.068" stroke-opacity="1" stroke-miterlimit="2.613"/><path stroke-linecap="butt" transform="matrix(0.102808, 0, 0, 0.102549, 60.013397, 107.699503)" fill-opacity="1" fill="#de242f" fill-rule="nonzero" stroke-linejoin="miter" d="M 757.614087 271.017277 L 764.909225 241.991658 C 719.998535 242.982033 695.985374 265.494029 678.393455 295.091018 Z M 757.614087 271.017277 " stroke="#2b2b2a" stroke-width="0.068" stroke-opacity="1" stroke-miterlimit="2.613"/><path stroke-linecap="butt" transform="matrix(0.102808, 0, 0, 0.102549, 60.013397, 107.699503)" fill-opacity="1" fill="#de242f" fill-rule="nonzero" stroke-linejoin="miter" d="M 757.614087 271.093459 L 758.411993 291.700887 L 793.899797 314.708071 L 808.41408 314.708071 L 840.21632 288.615487 L 774.598079 250.905037 Z M 757.614087 271.093459 " stroke="#2b2b2a" stroke-width="0.068" stroke-opacity="1" stroke-miterlimit="2.613"/><path stroke-linecap="butt" transform="matrix(0.102808, 0, 0, 0.102549, 60.013397, 107.699503)" fill-opacity="1" fill="#de242f" fill-rule="nonzero" stroke-linejoin="miter" d="M 1803.212451 278.292727 L 1789.116118 270.407815 L 1788.698168 256.504467 L 1775.513727 251.28595 L 1716.088753 285.606269 C 1723.117922 291.700887 1742.609617 314.593797 1752.412458 314.593797 C 1773.499965 314.593797 1778.895327 299.281068 1803.212451 292.805537 Z M 1803.212451 278.292727 " stroke="#2b2b2a" stroke-width="0.068" stroke-opacity="1" stroke-miterlimit="2.613"/><path stroke-linecap="butt" transform="matrix(0.102808, 0, 0, 0.102549, 60.013397, 107.699503)" fill-opacity="1" fill="#ecb8bf" fill-rule="nonzero" stroke-linejoin="miter" d="M 793.899797 329.182789 L 802.41079 323.088171 L 808.490071 314.593797 L 794.013783 314.593797 L 794.013783 329.182789 Z M 793.899797 329.182789 " stroke="#2b2b2a" stroke-width="0.068" stroke-opacity="1" stroke-miterlimit="2.613"/><path stroke-linecap="butt" transform="matrix(0.102808, 0, 0, 0.102549, 60.013397, 107.699503)" fill-opacity="1" fill="#de242f" fill-rule="nonzero" stroke-linejoin="miter" d="M 1883.117003 321.907338 L 1875.78387 307.394529 L 1759.289645 322.097795 L 1788.888145 367.083696 L 1883.003017 351.00914 L 1883.003017 321.907338 Z M 1883.117003 321.907338 " stroke="#2b2b2a" stroke-width="0.068" stroke-opacity="1" stroke-miterlimit="2.613"/><path stroke-linecap="butt" transform="matrix(0.102808, 0, 0, 0.102549, 60.013397, 107.699503)" fill-opacity="1" fill="#de242f" fill-rule="nonzero" stroke-linejoin="miter" d="M 663.195252 343.695598 L 670.490389 307.394529 L 656.014101 307.394529 C 630.48112 324.497551 608.40573 347.809466 605.214108 387.31021 Z M 663.195252 343.695598 " stroke="#2b2b2a" stroke-width="0.068" stroke-opacity="1" stroke-miterlimit="2.613"/><path stroke-linecap="butt" transform="matrix(0.102808, 0, 0, 0.102549, 60.013397, 107.699503)" fill-opacity="1" fill="#de242f" fill-rule="nonzero" stroke-linejoin="miter" d="M 677.595549 350.894866 L 769.696658 363.884021 L 794.013783 328.992332 L 794.013783 321.716882 L 677.709535 307.204072 L 677.709535 350.894866 Z M 677.595549 350.894866 " stroke="#2b2b2a" stroke-width="0.068" stroke-opacity="1" stroke-miterlimit="2.613"/><path stroke-linecap="butt" transform="matrix(0.102808, 0, 0, 0.102549, 60.013397, 107.699503)" fill-opacity="1" fill="#de242f" fill-rule="nonzero" stroke-linejoin="miter" d="M 1905.002415 314.593797 L 1890.488132 321.907338 L 1888.094415 339.696005 L 1958.994031 385.596098 L 1919.59269 314.593797 Z M 1905.002415 314.593797 " stroke="#2b2b2a" stroke-width="0.068" stroke-opacity="1" stroke-miterlimit="2.613"/><path stroke-linecap="butt" transform="matrix(0.102808, 0, 0, 0.102549, 60.013397, 107.699503)" fill-opacity="1" fill="#de242f" fill-rule="nonzero" stroke-linejoin="miter" d="M 633.900716 393.595285 L 634.014702 423.497005 C 634.014702 460.483719 679.381338 439.685834 714.185222 438.314545 C 768.708775 436.181429 739.414239 420.602061 764.491274 371.197563 Z M 633.900716 393.595285 " stroke="#2b2b2a" stroke-width="0.068" stroke-opacity="1" stroke-miterlimit="2.613"/><path stroke-linecap="butt" transform="matrix(0.102808, 0, 0, 0.102549, 60.013397, 107.699503)" fill-opacity="1" fill="#de242f" fill-rule="nonzero" stroke-linejoin="miter" d="M 1832.393001 379.996668 L 1803.402429 387.31021 C 1815.712973 439.914383 1799.488892 434.391135 1853.898458 438.505002 C 1879.317452 440.40957 1926.887828 462.388287 1926.887828 423.611279 L 1926.887828 408.984195 C 1926.811837 380.187125 1858.495914 380.491856 1832.393001 379.996668 Z M 1832.393001 379.996668 " stroke="#2b2b2a" stroke-width="0.068" stroke-opacity="1" stroke-miterlimit="2.613"/><path stroke-linecap="butt" transform="matrix(0.102808, 0, 0, 0.102549, 60.013397, 107.699503)" fill-opacity="1" fill="#de242f" fill-rule="nonzero" stroke-linejoin="miter" d="M 568.814412 525.200946 C 584.696534 506.917091 626.909542 453.703456 626.909542 423.497005 L 626.909542 401.708745 C 574.513738 406.089252 568.814412 469.892286 568.814412 525.200946 Z M 568.814412 525.200946 " stroke="#2b2b2a" stroke-width="0.068" stroke-opacity="1" stroke-miterlimit="2.613"/><path stroke-linecap="butt" transform="matrix(0.102808, 0, 0, 0.102549, 60.013397, 107.699503)" fill-opacity="1" fill="#de242f" fill-rule="nonzero" stroke-linejoin="miter" d="M 1919.59269 568.701283 L 1941.402111 532.400213 L 1941.402111 517.887404 L 1818.10669 445.399539 L 1818.182681 517.696947 Z M 1919.59269 568.701283 " stroke="#2b2b2a" stroke-width="0.068" stroke-opacity="1" stroke-miterlimit="2.613"/><path stroke-linecap="butt" transform="matrix(0.102808, 0, 0, 0.102549, 60.013397, 107.699503)" fill-opacity="1" fill="#de242f" fill-rule="nonzero" stroke-linejoin="miter" d="M 1934.106974 438.085997 C 1934.106974 454.08437 1980.689466 516.782754 1992.202105 525.200946 C 1992.202105 468.597179 1979.511605 412.298144 1934.106974 401.708745 Z M 1934.106974 438.085997 " stroke="#2b2b2a" stroke-width="0.068" stroke-opacity="1" stroke-miterlimit="2.613"/><path stroke-linecap="butt" transform="matrix(0.102808, 0, 0, 0.102549, 60.013397, 107.699503)" fill-opacity="1" fill="#de242f" fill-rule="nonzero" stroke-linejoin="miter" d="M 612.509245 532.514487 L 634.318666 561.502015 C 661.713427 578.490763 695.301455 534.685695 735.994644 525.200946 L 735.994644 459.798074 L 728.699506 452.484533 C 697.581186 469.016184 621.400194 499.108362 612.509245 532.514487 Z M 612.509245 532.514487 " stroke="#2b2b2a" stroke-width="0.068" stroke-opacity="1" stroke-miterlimit="2.613"/><path stroke-linecap="butt" transform="matrix(0.102808, 0, 0, 0.102549, 60.013397, 107.699503)" fill-opacity="1" fill="#de242f" fill-rule="nonzero" stroke-linejoin="miter" d="M 779.803463 474.387067 L 794.317747 474.387067 L 786.984614 488.899876 L 779.005558 503.984056 L 837.784607 561.502015 L 850.893057 545.503642 L 845.11774 561.502015 L 904.086768 606.107002 L 924.984297 590.489543 C 931.899479 616.505944 949.681376 619.515162 983.117423 619.515162 L 1003.786979 619.096157 L 1012.107995 604.888078 C 1016.401487 621.114999 1013.817793 626.71443 1033.917416 626.71443 L 1041.516517 626.71443 C 1058.082559 626.71443 1094.482255 605.611814 1128.60222 597.688811 C 1129.210148 571.40577 1131.793843 554.188473 1157.592792 554.188473 L 1185.291517 554.683661 L 1193.916497 575.900551 C 1212.4963 566.987172 1238.105272 561.387741 1266.411925 561.387741 L 1295.402497 561.387741 C 1326.596808 561.387741 1334.689851 569.882115 1360.716774 575.900551 C 1365.010266 559.711721 1362.388576 554.112291 1382.4882 554.112291 C 1415.506295 554.112291 1423.485352 566.682441 1425.993055 597.612628 C 1458.213246 605.116626 1499.704339 641.608153 1534.812188 619.400888 L 1549.288476 604.888078 L 1549.288476 619.400888 L 1621.897891 604.888078 L 1622.315841 589.308711 L 1636.488166 597.612628 C 1671.785992 594.717684 1698.914784 589.308711 1701.688456 554.417022 L 1723.611864 561.311558 C 1736.796305 541.618323 1767.192711 522.306002 1767.192711 495.98487 C 1767.192711 491.718637 1757.199892 480.90069 1752.716422 474.19661 L 1774.487848 474.19661 L 1774.487848 437.89554 C 1774.487848 300.99518 1443.698962 154.800526 1273.593076 154.800526 C 1169.599372 154.800526 1018.301262 206.719055 952.683021 247.705362 C 907.886318 275.702514 732.38507 399.689903 779.803463 474.387067 Z M 779.803463 474.387067 " stroke="#2b2b2a" stroke-width="0.068" stroke-opacity="1" stroke-miterlimit="2.613"/><path stroke-linecap="butt" transform="matrix(0.102808, 0, 0, 0.102549, 60.013397, 107.699503)" fill-opacity="1" fill="#de242f" fill-rule="nonzero" stroke-linejoin="miter" d="M 626.909542 561.502015 L 612.813209 553.617103 L 612.395258 532.400213 C 585.608426 539.599481 576.109549 558.302341 576.109549 590.489543 C 576.109549 627.780988 582.682772 683.013465 603.50431 699.202294 Z M 626.909542 561.502015 " stroke="#2b2b2a" stroke-width="0.068" stroke-opacity="1" stroke-miterlimit="2.613"/><path stroke-linecap="butt" transform="matrix(0.102808, 0, 0, 0.102549, 60.013397, 107.699503)" fill-opacity="1" fill="#de242f" fill-rule="nonzero" stroke-linejoin="miter" d="M 1933.916996 583.290275 L 1962.907568 699.507025 C 1965.795227 664.310605 1977.383857 653.987846 1977.383857 612.392077 L 1977.383857 576.014825 C 1977.383857 549.084231 1970.316692 543.218161 1955.612431 532.400213 L 1933.385059 568.510826 Z M 1933.916996 583.290275 " stroke="#2b2b2a" stroke-width="0.068" stroke-opacity="1" stroke-miterlimit="2.613"/><path stroke-linecap="butt" transform="matrix(0.102808, 0, 0, 0.102549, 60.013397, 107.699503)" fill-opacity="1" fill="#de242f" fill-rule="nonzero" stroke-linejoin="miter" d="M 866.889166 721.71429 C 816.203159 646.29339 796.711464 666.291356 742.985817 554.417022 C 694.085599 567.482359 642.715673 680.308978 641.309839 743.197819 L 706.700107 743.197819 C 760.083795 743.197819 780.297405 791.916673 812.213631 798.81121 Z M 866.889166 721.71429 " stroke="#2b2b2a" stroke-width="0.068" stroke-opacity="1" stroke-miterlimit="2.613"/><path stroke-linecap="butt" transform="matrix(0.102808, 0, 0, 0.102549, 60.013397, 107.699503)" fill-opacity="1" fill="#de242f" fill-rule="nonzero" stroke-linejoin="miter" d="M 1803.288442 561.502015 C 1783.302806 647.093309 1713.011117 671.814604 1679.803044 721.295285 L 1739.190022 800.182499 C 1813.091283 750.816092 1778.895327 743.083545 1912.183566 743.083545 C 1882.205111 680.613709 1880.685291 596.393704 1817.802726 554.302747 Z M 1803.288442 561.502015 " stroke="#2b2b2a" stroke-width="0.068" stroke-opacity="1" stroke-miterlimit="2.613"/><path stroke-linecap="butt" transform="matrix(0.102808, 0, 0, 0.102549, 60.013397, 107.699503)" fill-opacity="1" fill="#de242f" fill-rule="nonzero" stroke-linejoin="miter" d="M 786.718646 931.78816 C 786.718646 899.791415 797.395383 880.09818 808.490071 859.186021 C 790.594187 825.513256 756.284244 771.99489 706.814094 771.99489 L 656.014101 771.99489 C 629.607223 771.99489 630.48112 780.603538 605.214108 786.5077 L 587.812165 887.716453 L 590.699824 938.987428 C 590.699824 1062.708177 727.48365 1193.209188 830.413479 1193.209188 L 888.50861 1193.209188 C 914.915487 1193.209188 914.003595 1184.60054 939.308603 1178.696379 C 935.091102 1128.682418 786.794637 1076.49725 786.794637 953.500238 Z M 786.718646 931.78816 " stroke="#2b2b2a" stroke-width="0.068" stroke-opacity="1" stroke-miterlimit="2.613"/><path stroke-linecap="butt" transform="matrix(0.102808, 0, 0, 0.102549, 60.013397, 107.699503)" fill-opacity="1" fill="#de242f" fill-rule="nonzero" stroke-linejoin="miter" d="M 1745.383289 931.902434 L 1730.907001 924.588893 C 1691.809624 934.987835 1636.488166 992.810525 1636.488166 1040.805643 L 1636.488166 1062.593903 C 1674.103718 1052.499691 1659.703421 1032.882639 1712.213212 1014.789241 C 1746.713132 1002.904736 1745.383289 975.783685 1745.383289 931.902434 Z M 1745.383289 931.902434 " stroke="#2b2b2a" stroke-width="0.068" stroke-opacity="1" stroke-miterlimit="2.613"/><path stroke-linecap="butt" transform="matrix(0.102808, 0, 0, 0.102549, 60.013397, 107.699503)" fill-opacity="1" fill="#de242f" fill-rule="nonzero" stroke-linejoin="miter" d="M 812.707573 1012.008572 C 870.118784 1012.998947 877.907863 1041.110374 910.014067 1062.593903 C 910.014067 976.316964 864.495449 947.100888 806.590296 917.503899 Z M 812.707573 1012.008572 " stroke="#2b2b2a" stroke-width="0.068" stroke-opacity="1" stroke-miterlimit="2.613"/><path stroke-linecap="butt" transform="matrix(0.102808, 0, 0, 0.102549, 60.013397, 107.699503)" fill-opacity="1" fill="#de242f" fill-rule="nonzero" stroke-linejoin="miter" d="M 1745.193312 851.910571 C 1745.193312 882.497936 1759.707596 886.611803 1759.707596 924.51271 L 1759.707596 960.813779 C 1759.707596 1032.882639 1661.185245 1142.509583 1607.193629 1156.908119 C 1613.804848 1181.51514 1627.217262 1193.209188 1657.993623 1193.209188 L 1708.793616 1193.209188 C 1833.190907 1193.209188 1962.983559 1058.403853 1962.983559 917.199168 C 1962.983559 828.4082 1957.588197 771.918707 1868.602719 771.918707 L 1846.793298 771.918707 C 1811.191508 771.99489 1745.193312 826.998819 1745.193312 851.910571 Z M 1745.193312 851.910571 " stroke="#2b2b2a" stroke-width="0.068" stroke-opacity="1" stroke-miterlimit="2.613"/><path fill="#e31f25" d="M 204.039062 212.535156 L 204.953125 214.84375 L 207.441406 214.996094 L 205.519531 216.578125 L 206.144531 218.976562 L 204.046875 217.644531 L 201.949219 218.976562 L 202.578125 216.578125 L 200.65625 214.996094 L 203.144531 214.84375 Z M 204.039062 212.535156 " fill-opacity="1" fill-rule="nonzero"/><path fill="#e31f25" d="M 197.035156 212.535156 L 197.953125 214.84375 L 200.4375 214.996094 L 198.515625 216.578125 L 199.144531 218.976562 L 197.046875 217.644531 L 194.949219 218.976562 L 195.578125 216.578125 L 193.652344 214.996094 L 196.140625 214.84375 Z M 197.035156 212.535156 " fill-opacity="1" fill-rule="nonzero"/><path fill="#e31f25" d="M 190.035156 212.535156 L 190.949219 214.84375 L 193.4375 214.996094 L 191.515625 216.578125 L 192.140625 218.976562 L 190.046875 217.644531 L 187.949219 218.976562 L 188.574219 216.578125 L 186.652344 214.996094 L 189.140625 214.84375 Z M 190.035156 212.535156 " fill-opacity="1" fill-rule="nonzero"/><path fill="#e31f25" d="M 183.023438 212.535156 L 183.9375 214.84375 L 186.425781 214.996094 L 184.503906 216.578125 L 185.132812 218.976562 L 183.035156 217.644531 L 180.9375 218.976562 L 181.5625 216.578125 L 179.640625 214.996094 L 182.128906 214.84375 Z M 183.023438 212.535156 " fill-opacity="1" fill-rule="nonzero"/><path fill="#e31f25" d="M 176.023438 212.535156 L 176.9375 214.84375 L 179.425781 214.996094 L 177.503906 216.578125 L 178.128906 218.976562 L 176.03125 217.644531 L 173.933594 218.976562 L 174.5625 216.578125 L 172.640625 214.996094 L 175.128906 214.84375 Z M 176.023438 212.535156 " fill-opacity="1" fill-rule="nonzero"/><path fill="#2b2b2a" d="M 209.320312 215.960938 L 226.757812 215.960938 L 226.757812 217.039062 L 209.320312 217.039062 Z M 209.320312 215.960938 " fill-opacity="1" fill-rule="nonzero"/><path fill="#2b2b2a" d="M 154.667969 215.960938 L 172.105469 215.960938 L 172.105469 217.039062 L 154.667969 217.039062 Z M 154.667969 215.960938 " fill-opacity="1" fill-rule="nonzero"/><path fill="#2b2b2a" d="M 201.632812 228.316406 L 201.632812 221.066406 L 206.8125 221.066406 L 206.8125 222.296875 L 203.0625 222.296875 L 203.0625 223.917969 L 206.578125 223.917969 L 206.578125 225.117188 L 203.0625 225.117188 L 203.0625 227.066406 L 206.96875 227.066406 L 206.96875 228.296875 L 201.632812 228.296875 Z M 194.722656 225.96875 L 196.101562 225.828125 C 196.183594 226.308594 196.347656 226.65625 196.605469 226.882812 C 196.863281 227.109375 197.199219 227.222656 197.632812 227.222656 C 198.085938 227.222656 198.433594 227.117188 198.660156 226.921875 C 198.886719 226.730469 199.011719 226.492188 199.011719 226.226562 C 199.011719 226.050781 198.957031 225.910156 198.867188 225.785156 C 198.773438 225.664062 198.597656 225.558594 198.363281 225.476562 C 198.199219 225.417969 197.816406 225.3125 197.230469 225.160156 C 196.472656 224.964844 195.945312 224.71875 195.636719 224.441406 C 195.207031 224.042969 194.992188 223.550781 194.992188 222.976562 C 194.992188 222.605469 195.09375 222.257812 195.289062 221.941406 C 195.492188 221.621094 195.78125 221.375 196.164062 221.203125 C 196.542969 221.039062 197.003906 220.945312 197.539062 220.945312 C 198.414062 220.945312 199.082031 221.148438 199.523438 221.550781 C 199.964844 221.949219 200.203125 222.492188 200.222656 223.160156 L 198.804688 223.210938 C 198.742188 222.832031 198.621094 222.566406 198.414062 222.402344 C 198.21875 222.238281 197.921875 222.15625 197.519531 222.15625 C 197.109375 222.15625 196.789062 222.246094 196.5625 222.421875 C 196.417969 222.535156 196.335938 222.6875 196.335938 222.871094 C 196.335938 223.046875 196.410156 223.191406 196.542969 223.3125 C 196.71875 223.46875 197.148438 223.632812 197.839844 223.804688 C 198.527344 223.96875 199.03125 224.144531 199.359375 224.328125 C 199.6875 224.511719 199.945312 224.757812 200.128906 225.066406 C 200.316406 225.375 200.410156 225.765625 200.410156 226.226562 C 200.410156 226.648438 200.296875 227.035156 200.070312 227.394531 C 199.84375 227.753906 199.535156 228.03125 199.125 228.207031 C 198.710938 228.378906 198.207031 228.472656 197.589844 228.472656 C 196.707031 228.472656 196.019531 228.257812 195.546875 227.835938 C 195.101562 227.394531 194.816406 226.78125 194.722656 225.96875 Z M 188.007812 221.066406 L 189.4375 221.066406 L 189.4375 224.996094 C 189.4375 225.621094 189.460938 226.019531 189.488281 226.207031 C 189.550781 226.503906 189.695312 226.738281 189.921875 226.921875 C 190.148438 227.109375 190.457031 227.191406 190.847656 227.191406 C 191.25 227.191406 191.546875 227.109375 191.75 226.933594 C 191.957031 226.757812 192.070312 226.554688 192.113281 226.308594 C 192.152344 226.0625 192.171875 225.652344 192.171875 225.078125 L 192.171875 221.058594 L 193.570312 221.058594 L 193.570312 224.871094 C 193.570312 225.746094 193.53125 226.359375 193.457031 226.71875 C 193.386719 227.078125 193.242188 227.386719 193.035156 227.632812 C 192.832031 227.878906 192.554688 228.070312 192.214844 228.226562 C 191.863281 228.371094 191.421875 228.453125 190.867188 228.453125 C 190.199219 228.453125 189.695312 228.371094 189.347656 228.214844 C 189.007812 228.050781 188.730469 227.847656 188.523438 227.589844 C 188.316406 227.332031 188.195312 227.066406 188.132812 226.78125 C 188.039062 226.359375 188 225.753906 188 224.933594 Z M 181.5625 224.6875 C 181.5625 225.507812 181.75 226.132812 182.117188 226.566406 C 182.488281 226.984375 182.953125 227.199219 183.515625 227.199219 C 184.082031 227.199219 184.546875 226.984375 184.914062 226.566406 C 185.273438 226.144531 185.460938 225.507812 185.460938 224.667969 C 185.460938 223.835938 185.285156 223.210938 184.925781 222.800781 C 184.574219 222.390625 184.101562 222.1875 183.515625 222.1875 C 182.929688 222.1875 182.457031 222.390625 182.097656 222.8125 C 181.738281 223.230469 181.5625 223.855469 181.5625 224.6875 Z M 180.105469 224.738281 C 180.105469 224 180.207031 223.375 180.421875 222.871094 C 180.578125 222.503906 180.804688 222.164062 181.082031 221.878906 C 181.359375 221.589844 181.65625 221.367188 181.984375 221.222656 C 182.425781 221.027344 182.929688 220.933594 183.496094 220.933594 C 184.535156 220.933594 185.355469 221.261719 185.984375 221.929688 C 186.601562 222.597656 186.917969 223.519531 186.917969 224.699219 C 186.917969 225.867188 186.613281 226.789062 185.996094 227.457031 C 185.378906 228.125 184.554688 228.453125 183.527344 228.453125 C 182.480469 228.453125 181.65625 228.125 181.039062 227.457031 C 180.410156 226.8125 180.105469 225.898438 180.105469 224.738281 Z M 173.308594 228.347656 L 173.308594 221.066406 L 174.738281 221.066406 L 174.738281 223.929688 L 177.472656 223.929688 L 177.472656 221.066406 L 178.902344 221.066406 L 178.902344 228.347656 L 177.472656 228.347656 L 177.472656 225.160156 L 174.746094 225.160156 L 174.746094 228.347656 Z M 173.308594 228.347656 " fill-opacity="1" fill-rule="nonzero"/><path fill="#e31f25" d="M 182.046875 194.324219 C 182.046875 192.980469 181.675781 191.996094 180.945312 191.378906 C 180.214844 190.753906 179.167969 190.445312 177.820312 190.445312 L 176.730469 190.445312 L 176.730469 198.898438 L 177.78125 198.898438 C 179.136719 198.898438 180.175781 198.539062 180.914062 197.800781 C 181.667969 197.070312 182.046875 195.914062 182.046875 194.324219 Z M 202.320312 201.144531 L 199.484375 193.789062 L 196.6875 201.144531 Z M 212.476562 209.265625 L 201.890625 209.265625 L 201.890625 208.15625 C 202.390625 208.117188 202.976562 208.023438 203.648438 207.878906 C 204.316406 207.726562 204.652344 207.542969 204.652344 207.328125 C 204.652344 207.246094 204.644531 207.164062 204.632812 207.070312 C 204.625 206.976562 204.582031 206.84375 204.519531 206.679688 L 202.855469 202.496094 L 196.121094 202.496094 C 195.96875 202.886719 195.800781 203.347656 195.605469 203.859375 C 195.421875 204.382812 195.257812 204.84375 195.125 205.253906 C 194.949219 205.789062 194.847656 206.167969 194.816406 206.402344 C 194.785156 206.648438 194.765625 206.8125 194.765625 206.90625 C 194.765625 207.203125 194.980469 207.46875 195.433594 207.675781 C 195.875 207.890625 196.625 208.042969 197.652344 208.136719 L 197.652344 209.242188 L 183.90625 209.242188 C 182.613281 207.214844 181.542969 205.59375 180.691406 204.382812 C 179.835938 203.171875 178.765625 201.789062 177.503906 200.199219 L 176.730469 200.199219 L 176.730469 206.289062 C 176.730469 206.628906 176.792969 206.917969 176.917969 207.152344 C 177.039062 207.386719 177.277344 207.582031 177.625 207.746094 C 177.800781 207.828125 178.078125 207.902344 178.449219 207.984375 C 178.820312 208.066406 179.136719 208.117188 179.40625 208.148438 L 179.40625 209.242188 L 169.042969 209.242188 L 169.042969 208.136719 C 169.042969 208.136719 169.648438 208.066406 170.078125 208.011719 C 170.511719 207.960938 170.820312 207.902344 171.003906 207.820312 C 171.355469 207.664062 171.582031 207.480469 171.703125 207.246094 C 171.816406 207.007812 171.878906 206.722656 171.898438 206.363281 L 171.898438 192.210938 C 171.878906 191.871094 171.828125 191.585938 171.734375 191.359375 C 171.632812 191.132812 171.386719 190.9375 171.003906 190.765625 C 170.707031 190.640625 170.367188 190.539062 169.96875 190.445312 C 169.566406 190.363281 169.246094 190.304688 169.03125 190.261719 L 169.03125 189.175781 L 179.929688 189.175781 C 182.367188 189.164062 184.214844 189.566406 185.480469 190.34375 C 186.746094 191.132812 187.382812 192.324219 187.382812 193.921875 C 187.382812 195.328125 186.992188 196.464844 186.210938 197.316406 C 185.429688 198.167969 184.238281 198.835938 182.644531 199.328125 C 183.261719 200.15625 183.988281 201.121094 184.8125 202.210938 C 185.636719 203.296875 186.5 204.425781 187.394531 205.5625 C 187.679688 205.933594 188.0625 206.382812 188.554688 206.90625 C 189.039062 207.4375 189.46875 207.765625 189.851562 207.890625 C 190.023438 207.953125 190.25 208.003906 190.507812 208.035156 C 190.578125 208.023438 190.640625 208.003906 190.714844 207.992188 C 191.09375 207.910156 191.390625 207.808594 191.609375 207.65625 C 191.976562 207.429688 192.296875 207.152344 192.554688 206.8125 C 192.8125 206.484375 193.027344 206.097656 193.203125 205.632812 C 194.261719 202.976562 195.320312 200.320312 196.378906 197.65625 C 197.449219 194.988281 199.90625 188.855469 199.90625 188.855469 L 202.648438 188.855469 C 204.4375 193.410156 205.835938 197.011719 206.84375 199.65625 C 207.863281 202.300781 208.714844 204.496094 209.425781 206.230469 C 209.546875 206.515625 209.691406 206.773438 209.878906 207 C 210.0625 207.234375 210.320312 207.449219 210.660156 207.65625 C 210.914062 207.808594 211.214844 207.921875 211.542969 207.992188 C 211.882812 208.066406 212.191406 208.117188 212.457031 208.136719 L 212.457031 209.265625 Z M 226.367188 203.65625 C 226.367188 202.261719 225.964844 201.183594 225.164062 200.433594 C 224.363281 199.6875 223.210938 199.316406 221.699219 199.316406 C 221.523438 199.316406 221.300781 199.316406 221.011719 199.335938 C 220.722656 199.347656 220.507812 199.367188 220.375 199.378906 L 220.375 206.742188 C 220.457031 207.089844 220.714844 207.386719 221.144531 207.625 C 221.578125 207.871094 222.089844 207.984375 222.707031 207.984375 C 223.796875 207.984375 224.679688 207.601562 225.359375 206.84375 C 226.027344 206.097656 226.367188 205.027344 226.367188 203.65625 Z M 225.410156 193.984375 C 225.410156 192.867188 225.101562 191.996094 224.496094 191.378906 C 223.890625 190.753906 222.976562 190.445312 221.761719 190.445312 C 221.585938 190.445312 221.359375 190.445312 221.082031 190.46875 C 220.804688 190.476562 220.570312 190.496094 220.363281 190.507812 L 220.363281 197.964844 L 221.082031 197.964844 C 222.5625 197.964844 223.652344 197.605469 224.363281 196.898438 C 225.0625 196.167969 225.410156 195.203125 225.410156 193.984375 Z M 229.84375 200.035156 C 230.429688 200.457031 230.902344 200.980469 231.269531 201.605469 C 231.640625 202.230469 231.816406 202.976562 231.816406 203.828125 C 231.816406 204.855469 231.609375 205.714844 231.1875 206.414062 C 230.765625 207.109375 230.171875 207.675781 229.390625 208.074219 C 228.566406 208.503906 227.621094 208.8125 226.542969 208.996094 C 225.460938 209.171875 224.199219 209.265625 222.75 209.265625 L 212.632812 209.265625 L 212.632812 208.15625 C 212.921875 208.125 213.269531 208.085938 213.710938 208.035156 C 214.144531 207.972656 214.441406 207.910156 214.617188 207.839844 C 214.957031 207.695312 215.191406 207.511719 215.304688 207.273438 C 215.429688 207.039062 215.492188 206.742188 215.492188 206.371094 L 215.492188 192.199219 C 215.492188 191.863281 215.4375 191.574219 215.335938 191.347656 C 215.234375 191.125 214.988281 190.917969 214.605469 190.753906 C 214.316406 190.632812 213.988281 190.527344 213.609375 190.445312 C 213.226562 190.363281 212.898438 190.304688 212.613281 190.25 L 212.613281 189.144531 L 223.160156 189.144531 C 225.8125 189.144531 227.734375 189.523438 228.90625 190.273438 C 230.089844 191.03125 230.675781 192.148438 230.675781 193.625 C 230.675781 194.300781 230.542969 194.90625 230.273438 195.421875 C 230.015625 195.933594 229.636719 196.382812 229.132812 196.765625 C 228.691406 197.113281 228.15625 197.421875 227.527344 197.667969 C 226.914062 197.921875 226.242188 198.136719 225.535156 198.300781 L 225.535156 198.578125 C 226.253906 198.652344 226.984375 198.816406 227.753906 199.070312 C 228.527344 199.316406 229.195312 199.644531 229.761719 200.035156 Z M 159.160156 209.847656 C 157.742188 209.847656 156.40625 209.613281 155.164062 209.132812 C 153.917969 208.648438 152.839844 207.960938 151.925781 207.050781 C 151.019531 206.15625 150.308594 205.058594 149.785156 203.746094 C 149.261719 202.433594 149.003906 200.988281 149.003906 199.429688 C 149.003906 197.871094 149.261719 196.414062 149.796875 195.09375 C 150.320312 193.769531 151.058594 192.609375 152.007812 191.636719 C 152.941406 190.683594 154.0625 189.933594 155.367188 189.410156 C 156.671875 188.886719 158.082031 188.621094 159.574219 188.621094 C 160.652344 188.621094 161.628906 188.753906 162.523438 189.03125 C 163.40625 189.296875 164.15625 189.617188 164.773438 189.953125 L 165.628906 189.175781 L 166.8125 189.175781 L 166.921875 196.519531 L 165.699219 196.519531 C 165.023438 194.273438 164.1875 192.621094 163.234375 191.566406 C 162.277344 190.519531 161.105469 189.984375 159.726562 189.984375 C 158.011719 189.984375 156.703125 190.765625 155.808594 192.332031 C 154.914062 193.902344 154.464844 196.105469 154.464844 198.9375 C 154.464844 200.539062 154.617188 201.910156 154.925781 203.039062 C 155.234375 204.167969 155.636719 205.082031 156.128906 205.777344 C 156.652344 206.496094 157.28125 207.027344 158.011719 207.367188 C 158.730469 207.707031 159.519531 207.871094 160.40625 207.871094 C 161.679688 207.871094 162.820312 207.511719 163.820312 206.78125 C 164.816406 206.066406 165.730469 204.976562 166.554688 203.511719 L 167.734375 204.25 C 167.34375 205.082031 166.894531 205.828125 166.390625 206.484375 C 165.886719 207.140625 165.308594 207.707031 164.652344 208.1875 C 163.933594 208.699219 163.140625 209.109375 162.257812 209.40625 C 161.371094 209.707031 160.34375 209.847656 159.160156 209.847656 " fill-opacity="1" fill-rule="nonzero"/><path stroke-linecap="butt" transform="matrix(0.0441447, 0, 0, 0.0443313, 70.648344, 230.761742)" fill-opacity="1" fill="#ffffff" fill-rule="nonzero" stroke-linejoin="miter" d="M 1977.872862 917.364371 C 1977.872862 928.643086 1977.076475 939.833686 1975.660676 950.936172 C 1970.528406 989.706756 1956.635882 1027.067501 1936.8147 1060.727417 C 1890.624269 1138.88539 1708.959602 1208.319981 1708.959602 1208.319981 L 1658.256312 1208.319981 C 1623.657732 1208.319981 1602.243777 1194.838391 1593.129573 1161.002245 L 1589.324615 1146.727621 L 1603.571089 1142.938678 C 1618.613949 1138.88539 1635.957483 1126.28495 1647.903284 1116.592304 C 1666.397155 1101.43653 1683.475226 1083.196732 1698.341112 1064.34013 C 1706.481954 1053.67822 1715.684646 1040.637205 1723.825488 1026.274466 C 1721.70179 1027.24373 1719.401117 1028.12488 1717.100444 1028.917915 C 1707.278341 1032.266283 1697.013801 1036.672032 1688.784471 1043.104424 C 1683.386739 1047.422057 1679.404805 1052.356495 1674.714972 1057.290933 C 1664.715894 1067.776614 1654.362866 1073.239742 1640.381854 1077.028685 L 1637.638744 1077.82172 L 1637.638744 1081.610663 L 1448.01021 1081.610663 L 1448.01021 1192.899862 L 1083.53054 1192.899862 L 1083.53054 1081.698778 L 911.422514 1081.698778 L 905.316883 1077.557375 L 901.688898 1075.178271 C 888.681248 1066.543004 879.213095 1056.321669 867.621243 1046.364678 C 853.286281 1034.116698 840.190144 1029.18226 823.20056 1027.59619 C 835.765773 1047.862632 852.843844 1066.102429 871.16074 1083.020503 C 888.327299 1098.793081 906.821169 1113.33205 923.633778 1129.368973 C 936.90689 1142.057528 952.126726 1158.623141 953.7195 1177.920318 L 954.781349 1190.608873 C 893.194106 1204.971612 904.432008 1208.408096 830.102578 1208.408096 C 758.604746 1208.408096 685.425652 1154.393623 641.712868 1101.61276 C 550.924778 991.90963 570.657472 899.388918 592.159914 774.706244 L 601.805043 772.50337 C 611.007734 770.300496 616.405467 767.480817 624.723284 763.691874 L 626.316057 758.228746 L 626.58152 743.072973 L 613.927819 725.97867 L 594.3721 710.822896 C 566.410076 688.970385 561.277806 624.205886 561.277806 590.36974 L 554.021838 564.640171 L 554.021838 524.988437 C 554.021838 484.808014 556.587973 427.180828 589.23983 400.834453 L 590.390166 385.943025 C 593.664201 345.233911 614.635718 317.037123 647.730012 294.920267 L 651.357996 292.364933 L 662.595898 292.364933 C 662.595898 292.364933 664.277159 289.633369 665.60447 287.51861 C 688.522711 249.188601 718.519946 228.21724 764.533402 227.15986 L 783.912147 226.8074 L 781.169037 237.557426 L 866.205444 286.373116 L 871.603177 287.69484 C 880.009481 280.909988 888.592761 274.301366 897.264528 267.780858 C 912.484363 256.502143 928.323611 245.311542 944.428321 235.266437 C 969.027823 219.934433 997.166821 207.333993 1024.066996 196.495853 C 1057.692214 183.014263 1092.467769 171.559318 1127.508786 162.307247 C 1173.787705 149.971152 1225.198894 140.102276 1273.336049 140.102276 C 1313.243874 140.102276 1355.009935 147.327703 1393.767423 156.667889 C 1439.42693 167.770374 1484.644 183.014263 1527.914347 201.077831 C 1581.183772 223.282802 1636.930845 252.00828 1684.3601 286.901805 L 1796.473657 227.33609 C 1834.611734 228.129125 1879.828804 249.541061 1890.358807 289.104679 C 1906.021079 284.610816 1918.232343 289.457139 1928.408396 299.94282 L 2000.87959 430.264851 L 2007.162197 525.340897 L 2007.162197 554.50695 L 1992.561773 576.095116 L 1992.561773 612.398481 C 1992.561773 632.224348 1989.995638 647.380122 1984.77488 666.324839 C 1981.589333 678.132244 1973.094541 710.294206 1972.12118 722.630301 L 1928.142933 721.572921 C 1958.671092 780.698062 1985.12883 841.937962 1977.872862 917.364371 Z M 1977.872862 917.364371 " stroke="#a86282" stroke-width="0.068" stroke-opacity="1" stroke-miterlimit="2.613"/><path stroke-linecap="butt" transform="matrix(0.0441447, 0, 0, 0.0443313, 70.648344, 230.761742)" fill-opacity="1" fill="#5e1b13" fill-rule="nonzero" stroke-linejoin="miter" d="M 793.557275 547.017178 L 779.222314 547.017178 C 792.672401 652.578905 952.215213 750.474629 1084.415414 750.474629 L 1476.326183 750.474629 C 1595.872683 750.474629 1764.706675 648.789961 1767.007347 547.017178 C 1727.807422 573.187322 1727.718934 596.361558 1667.724466 622.091127 C 1631.6216 637.599361 1569.237971 648.789961 1519.861992 648.789961 L 1483.936101 648.789961 C 1442.52399 648.789961 1371.822544 590.7222 1287.671011 590.7222 C 1173.079806 590.7222 1120.51828 648.789961 1055.126079 648.789961 L 996.989846 648.789961 C 925.757476 648.701846 807.892237 600.326731 793.557275 547.017178 Z M 793.557275 547.017178 " stroke="#2b2b2a" stroke-width="0.068" stroke-opacity="1" stroke-miterlimit="2.613"/><path stroke-linecap="butt" transform="matrix(0.0441447, 0, 0, 0.0443313, 70.648344, 230.761742)" fill-opacity="1" fill="#de242f" fill-rule="nonzero" stroke-linejoin="miter" d="M 1810.631644 278.266539 L 1876.023845 292.805508 C 1868.236952 263.72757 1833.107448 242.756209 1796.119708 241.963174 L 1794.969371 257.383293 Z M 1810.631644 278.266539 " stroke="#2b2b2a" stroke-width="0.068" stroke-opacity="1" stroke-miterlimit="2.613"/><path stroke-linecap="butt" transform="matrix(0.0441447, 0, 0, 0.0443313, 70.648344, 230.761742)" fill-opacity="1" fill="#de242f" fill-rule="nonzero" stroke-linejoin="miter" d="M 757.631384 271.041112 L 764.887352 241.963174 C 720.024232 243.020553 696.044142 265.489869 678.435146 295.096497 Z M 757.631384 271.041112 " stroke="#2b2b2a" stroke-width="0.068" stroke-opacity="1" stroke-miterlimit="2.613"/><path stroke-linecap="butt" transform="matrix(0.0441447, 0, 0, 0.0443313, 70.648344, 230.761742)" fill-opacity="1" fill="#de242f" fill-rule="nonzero" stroke-linejoin="miter" d="M 757.631384 271.129227 L 758.427771 291.660013 L 793.911225 314.658019 L 808.423161 314.658019 L 840.190144 288.57599 L 774.620968 250.862785 Z M 757.631384 271.129227 " stroke="#2b2b2a" stroke-width="0.068" stroke-opacity="1" stroke-miterlimit="2.613"/><path stroke-linecap="butt" transform="matrix(0.0441447, 0, 0, 0.0443313, 70.648344, 230.761742)" fill-opacity="1" fill="#de242f" fill-rule="nonzero" stroke-linejoin="miter" d="M 1803.198701 278.266539 L 1789.129202 270.424307 L 1788.686765 256.502143 L 1775.502139 251.30336 L 1716.127083 285.580081 C 1723.117589 291.660013 1742.58482 314.569904 1752.406924 314.569904 C 1773.466929 314.569904 1778.864661 299.326015 1803.198701 292.805508 Z M 1803.198701 278.266539 " stroke="#2b2b2a" stroke-width="0.068" stroke-opacity="1" stroke-miterlimit="2.613"/><path stroke-linecap="butt" transform="matrix(0.0441447, 0, 0, 0.0443313, 70.648344, 230.761742)" fill-opacity="1" fill="#ecb8bf" fill-rule="nonzero" stroke-linejoin="miter" d="M 793.911225 329.196988 L 802.406017 323.117055 L 808.511649 314.569904 L 793.999712 314.569904 L 793.999712 329.196988 Z M 793.911225 329.196988 " stroke="#2b2b2a" stroke-width="0.068" stroke-opacity="1" stroke-miterlimit="2.613"/><path stroke-linecap="butt" transform="matrix(0.0441447, 0, 0, 0.0443313, 70.648344, 230.761742)" fill-opacity="1" fill="#de242f" fill-rule="nonzero" stroke-linejoin="miter" d="M 1883.102838 321.883446 L 1875.758383 307.432592 L 1759.308942 322.059676 L 1788.863739 367.086422 L 1883.014351 350.961384 L 1883.014351 321.883446 Z M 1883.102838 321.883446 " stroke="#2b2b2a" stroke-width="0.068" stroke-opacity="1" stroke-miterlimit="2.613"/><path stroke-linecap="butt" transform="matrix(0.0441447, 0, 0, 0.0443313, 70.648344, 230.761742)" fill-opacity="1" fill="#de242f" fill-rule="nonzero" stroke-linejoin="miter" d="M 663.21531 343.735957 L 670.471278 307.432592 L 655.959342 307.432592 C 630.474966 324.526895 608.441599 347.789245 605.167565 387.264749 Z M 663.21531 343.735957 " stroke="#2b2b2a" stroke-width="0.068" stroke-opacity="1" stroke-miterlimit="2.613"/><path stroke-linecap="butt" transform="matrix(0.0441447, 0, 0, 0.0443313, 70.648344, 230.761742)" fill-opacity="1" fill="#de242f" fill-rule="nonzero" stroke-linejoin="miter" d="M 677.638759 350.873269 L 769.665673 363.914284 L 793.999712 329.020758 L 793.999712 321.707216 L 677.727247 307.168247 L 677.727247 350.873269 Z M 677.638759 350.873269 " stroke="#2b2b2a" stroke-width="0.068" stroke-opacity="1" stroke-miterlimit="2.613"/><path stroke-linecap="butt" transform="matrix(0.0441447, 0, 0, 0.0443313, 70.648344, 230.761742)" fill-opacity="1" fill="#de242f" fill-rule="nonzero" stroke-linejoin="miter" d="M 1904.95923 314.569904 L 1890.535781 321.883446 L 1888.058134 339.682669 L 1959.025042 385.590565 L 1919.559654 314.569904 Z M 1904.95923 314.569904 " stroke="#2b2b2a" stroke-width="0.068" stroke-opacity="1" stroke-miterlimit="2.613"/><path stroke-linecap="butt" transform="matrix(0.0441447, 0, 0, 0.0443313, 70.648344, 230.761742)" fill-opacity="1" fill="#de242f" fill-rule="nonzero" stroke-linejoin="miter" d="M 633.925975 393.609026 L 634.014463 423.479999 C 634.014463 460.488284 679.408507 439.693152 714.184062 438.283313 C 768.692311 436.168554 739.402976 420.572205 764.533402 371.227826 Z M 633.925975 393.609026 " stroke="#2b2b2a" stroke-width="0.068" stroke-opacity="1" stroke-miterlimit="2.613"/><path stroke-linecap="butt" transform="matrix(0.0441447, 0, 0, 0.0443313, 70.648344, 230.761742)" fill-opacity="1" fill="#de242f" fill-rule="nonzero" stroke-linejoin="miter" d="M 1832.399549 380.039322 L 1803.375676 387.264749 C 1815.675427 439.869382 1799.482229 434.406255 1853.901991 438.459543 C 1879.297879 440.398072 1926.90411 462.426813 1926.90411 423.568114 L 1926.90411 409.029145 C 1926.815622 380.215552 1858.503336 380.479897 1832.399549 380.039322 Z M 1832.399549 380.039322 " stroke="#2b2b2a" stroke-width="0.068" stroke-opacity="1" stroke-miterlimit="2.613"/><path stroke-linecap="butt" transform="matrix(0.0441447, 0, 0, 0.0443313, 70.648344, 230.761742)" fill-opacity="1" fill="#de242f" fill-rule="nonzero" stroke-linejoin="miter" d="M 568.799236 525.164667 C 584.726971 506.92487 626.935469 453.703432 626.935469 423.479999 L 626.935469 401.715603 C 574.462431 406.121351 568.799236 469.916585 568.799236 525.164667 Z M 568.799236 525.164667 " stroke="#2b2b2a" stroke-width="0.068" stroke-opacity="1" stroke-miterlimit="2.613"/><path stroke-linecap="butt" transform="matrix(0.0441447, 0, 0, 0.0443313, 70.648344, 230.761742)" fill-opacity="1" fill="#de242f" fill-rule="nonzero" stroke-linejoin="miter" d="M 1919.559654 568.693459 L 1941.416046 532.390094 L 1941.416046 517.93924 L 1818.064587 445.420625 L 1818.241562 517.674895 Z M 1919.559654 568.693459 " stroke="#2b2b2a" stroke-width="0.068" stroke-opacity="1" stroke-miterlimit="2.613"/><path stroke-linecap="butt" transform="matrix(0.0441447, 0, 0, 0.0443313, 70.648344, 230.761742)" fill-opacity="1" fill="#de242f" fill-rule="nonzero" stroke-linejoin="miter" d="M 1934.07159 438.107083 C 1934.07159 454.144006 1980.704459 516.793746 1992.207823 525.164667 C 1992.207823 468.594861 1979.465635 412.289399 1934.07159 401.715603 Z M 1934.07159 438.107083 " stroke="#2b2b2a" stroke-width="0.068" stroke-opacity="1" stroke-miterlimit="2.613"/><path stroke-linecap="butt" transform="matrix(0.0441447, 0, 0, 0.0443313, 70.648344, 230.761742)" fill-opacity="1" fill="#de242f" fill-rule="nonzero" stroke-linejoin="miter" d="M 612.51202 532.478209 L 634.279925 561.468032 C 661.711024 578.47422 695.336242 534.681083 736.040454 525.164667 L 736.040454 459.783364 L 728.695999 452.469822 C 697.636915 469.035435 621.360762 499.082638 612.51202 532.478209 Z M 612.51202 532.478209 " stroke="#2b2b2a" stroke-width="0.068" stroke-opacity="1" stroke-miterlimit="2.613"/><path stroke-linecap="butt" transform="matrix(0.0441447, 0, 0, 0.0443313, 70.648344, 230.761742)" fill-opacity="1" fill="#de242f" fill-rule="nonzero" stroke-linejoin="miter" d="M 779.841726 474.410448 L 794.265174 474.410448 L 787.009206 488.861302 L 778.956851 504.017076 L 837.800984 561.468032 L 850.897121 545.519224 L 845.056952 561.468032 L 904.078059 606.142319 L 924.961089 590.457855 C 931.863108 616.539885 949.737566 619.535793 983.097322 619.535793 L 1003.803377 619.095219 L 1012.121195 604.908709 C 1016.368591 621.121863 1013.802456 626.673105 1033.889099 626.673105 L 1041.499017 626.673105 C 1058.134651 626.673105 1094.50298 605.613629 1128.570635 597.683282 C 1129.190047 571.425023 1131.756182 554.242605 1157.594508 554.242605 L 1185.291069 554.68318 L 1193.874349 575.918886 C 1212.456706 567.019275 1238.118057 561.379917 1266.434031 561.379917 L 1295.369416 561.379917 C 1326.605474 561.379917 1334.657829 569.927069 1360.673129 575.918886 C 1365.009013 559.705733 1362.442878 554.066375 1382.529521 554.066375 C 1415.535328 554.066375 1423.499195 566.666815 1425.976843 597.595167 C 1458.186263 605.084939 1499.686861 641.564534 1534.816366 619.359563 L 1549.328302 604.908709 L 1549.328302 619.359563 L 1621.887984 604.908709 L 1622.330421 589.312361 L 1636.488408 597.595167 C 1671.794887 594.687374 1698.872037 589.312361 1701.703634 554.418835 L 1723.560026 561.291802 C 1736.833138 541.642165 1767.184322 522.256873 1767.184322 495.998614 C 1767.184322 491.680981 1757.185244 480.930955 1752.672386 474.234218 L 1774.528778 474.234218 L 1774.528778 437.930853 C 1774.528778 301.0002 1443.674326 154.817475 1273.601511 154.817475 C 1169.628797 154.817475 1018.315314 206.717188 952.657651 247.690647 C 907.883018 275.711205 732.41247 399.688959 779.841726 474.410448 Z M 779.841726 474.410448 " stroke="#2b2b2a" stroke-width="0.068" stroke-opacity="1" stroke-miterlimit="2.613"/><path stroke-linecap="butt" transform="matrix(0.0441447, 0, 0, 0.0443313, 70.648344, 230.761742)" fill-opacity="1" fill="#de242f" fill-rule="nonzero" stroke-linejoin="miter" d="M 626.935469 561.468032 L 612.777483 553.625801 L 612.423533 532.390094 C 585.611846 539.615521 576.143692 558.295894 576.143692 590.457855 C 576.143692 627.8186 582.691761 682.978567 603.486304 699.191721 Z M 626.935469 561.468032 " stroke="#2b2b2a" stroke-width="0.068" stroke-opacity="1" stroke-miterlimit="2.613"/><path stroke-linecap="butt" transform="matrix(0.0441447, 0, 0, 0.0443313, 70.648344, 230.761742)" fill-opacity="1" fill="#de242f" fill-rule="nonzero" stroke-linejoin="miter" d="M 1933.894616 583.320543 L 1962.918488 699.456065 C 1965.838573 664.298195 1977.430425 653.988744 1977.430425 612.398481 L 1977.430425 576.007001 C 1977.430425 549.131937 1970.262944 543.228235 1955.574033 532.390094 L 1933.363691 568.517229 Z M 1933.894616 583.320543 " stroke="#2b2b2a" stroke-width="0.068" stroke-opacity="1" stroke-miterlimit="2.613"/><path stroke-linecap="butt" transform="matrix(0.0441447, 0, 0, 0.0443313, 70.648344, 230.761742)" fill-opacity="1" fill="#de242f" fill-rule="nonzero" stroke-linejoin="miter" d="M 866.913344 721.661036 C 816.210054 646.322742 796.742822 666.324839 743.03096 554.418835 C 694.097419 567.45985 642.686229 680.335118 641.270431 743.161087 L 706.662632 743.161087 C 760.109032 743.161087 780.284163 791.888662 812.22812 798.76163 Z M 866.913344 721.661036 " stroke="#2b2b2a" stroke-width="0.068" stroke-opacity="1" stroke-miterlimit="2.613"/><path stroke-linecap="butt" transform="matrix(0.0441447, 0, 0, 0.0443313, 70.648344, 230.761742)" fill-opacity="1" fill="#de242f" fill-rule="nonzero" stroke-linejoin="miter" d="M 1803.287188 561.468032 C 1783.289032 647.115777 1713.030023 671.787967 1679.758755 721.308576 L 1739.222299 800.171469 C 1813.109292 750.827089 1778.864661 743.072973 1912.215198 743.072973 C 1882.217964 680.599463 1880.713678 596.361558 1817.799125 554.33072 Z M 1803.287188 561.468032 " stroke="#2b2b2a" stroke-width="0.068" stroke-opacity="1" stroke-miterlimit="2.613"/><path stroke-linecap="butt" transform="matrix(0.0441447, 0, 0, 0.0443313, 70.648344, 230.761742)" fill-opacity="1" fill="#de242f" fill-rule="nonzero" stroke-linejoin="miter" d="M 786.743744 931.815225 C 786.743744 899.829493 797.362234 880.091741 808.511649 859.208495 C 790.63719 825.460464 756.304073 771.974681 706.839607 771.974681 L 655.959342 771.974681 C 629.590092 771.974681 630.474966 780.609947 605.167565 786.51365 L 587.824031 887.669628 L 590.744116 939.040652 C 590.744116 1062.665946 727.457175 1193.164207 830.368041 1193.164207 L 888.504273 1193.164207 C 914.873524 1193.164207 913.988649 1184.617056 939.296051 1178.713353 C 935.137142 1128.664054 786.832231 1076.499995 786.832231 953.491506 Z M 786.743744 931.815225 " stroke="#2b2b2a" stroke-width="0.068" stroke-opacity="1" stroke-miterlimit="2.613"/><path stroke-linecap="butt" transform="matrix(0.0441447, 0, 0, 0.0443313, 70.648344, 230.761742)" fill-opacity="1" fill="#de242f" fill-rule="nonzero" stroke-linejoin="miter" d="M 1745.416418 931.90334 L 1730.904481 924.589798 C 1691.793043 934.987363 1636.488408 992.79078 1636.488408 1040.813435 L 1636.488408 1062.577831 C 1674.09556 1052.532725 1659.672111 1032.883088 1712.233636 1014.819521 C 1746.743729 1002.924001 1745.416418 975.784592 1745.416418 931.90334 Z M 1745.416418 931.90334 " stroke="#2b2b2a" stroke-width="0.068" stroke-opacity="1" stroke-miterlimit="2.613"/><path stroke-linecap="butt" transform="matrix(0.0441447, 0, 0, 0.0443313, 70.648344, 230.761742)" fill-opacity="1" fill="#de242f" fill-rule="nonzero" stroke-linejoin="miter" d="M 812.670557 1011.999842 C 870.098891 1012.969106 877.885783 1041.07778 910.006716 1062.577831 C 910.006716 976.313281 864.524183 947.059114 806.564925 917.540601 Z M 812.670557 1011.999842 " stroke="#2b2b2a" stroke-width="0.068" stroke-opacity="1" stroke-miterlimit="2.613"/><path stroke-linecap="butt" transform="matrix(0.0441447, 0, 0, 0.0443313, 70.648344, 230.761742)" fill-opacity="1" fill="#de242f" fill-rule="nonzero" stroke-linejoin="miter" d="M 1745.239443 851.894953 C 1745.239443 882.470845 1759.662892 886.612248 1759.662892 924.501683 L 1759.662892 960.805048 C 1759.662892 1032.883088 1661.176397 1142.498103 1607.199073 1156.860842 C 1613.835629 1181.533032 1627.197229 1193.164207 1657.99085 1193.164207 L 1708.782627 1193.164207 C 1833.195935 1193.164207 1963.006976 1058.436428 1963.006976 917.188141 C 1963.006976 828.368257 1957.609243 771.886566 1868.590902 771.886566 L 1846.822997 771.886566 C 1811.162568 771.974681 1745.239443 826.958418 1745.239443 851.894953 Z M 1745.239443 851.894953 " stroke="#2b2b2a" stroke-width="0.068" stroke-opacity="1" stroke-miterlimit="2.613"/><path fill="#e31f25" d="M 132.492188 276.082031 L 132.882812 277.078125 L 133.953125 277.144531 L 133.125 277.828125 L 133.394531 278.867188 L 132.496094 278.289062 L 131.59375 278.867188 L 131.863281 277.828125 L 131.039062 277.144531 L 132.105469 277.078125 Z M 132.492188 276.082031 " fill-opacity="1" fill-rule="nonzero"/><path fill="#e31f25" d="M 129.484375 276.082031 L 129.878906 277.078125 L 130.945312 277.144531 L 130.121094 277.828125 L 130.390625 278.867188 L 129.488281 278.289062 L 128.589844 278.867188 L 128.859375 277.828125 L 128.03125 277.144531 L 129.101562 277.078125 Z M 129.484375 276.082031 " fill-opacity="1" fill-rule="nonzero"/><path fill="#e31f25" d="M 126.476562 276.082031 L 126.871094 277.078125 L 127.9375 277.144531 L 127.113281 277.828125 L 127.382812 278.867188 L 126.484375 278.289062 L 125.582031 278.867188 L 125.851562 277.828125 L 125.027344 277.144531 L 126.09375 277.078125 Z M 126.476562 276.082031 " fill-opacity="1" fill-rule="nonzero"/><path fill="#e31f25" d="M 123.46875 276.082031 L 123.859375 277.078125 L 124.929688 277.144531 L 124.101562 277.828125 L 124.371094 278.867188 L 123.472656 278.289062 L 122.570312 278.867188 L 122.839844 277.828125 L 122.015625 277.144531 L 123.082031 277.078125 Z M 123.46875 276.082031 " fill-opacity="1" fill-rule="nonzero"/><path fill="#e31f25" d="M 120.460938 276.082031 L 120.855469 277.078125 L 121.921875 277.144531 L 121.097656 277.828125 L 121.367188 278.867188 L 120.464844 278.289062 L 119.566406 278.867188 L 119.835938 277.828125 L 119.007812 277.144531 L 120.078125 277.078125 Z M 120.460938 276.082031 " fill-opacity="1" fill-rule="nonzero"/><path fill="#2b2b2a" d="M 134.757812 277.5625 L 142.246094 277.5625 L 142.246094 278.027344 L 134.757812 278.027344 Z M 134.757812 277.5625 " fill-opacity="1" fill-rule="nonzero"/><path fill="#2b2b2a" d="M 111.292969 277.5625 L 118.78125 277.5625 L 118.78125 278.027344 L 111.292969 278.027344 Z M 111.292969 277.5625 " fill-opacity="1" fill-rule="nonzero"/><path fill="#2b2b2a" d="M 131.457031 282.902344 L 131.457031 279.769531 L 133.683594 279.769531 L 133.683594 280.300781 L 132.070312 280.300781 L 132.070312 281.003906 L 133.582031 281.003906 L 133.582031 281.519531 L 132.070312 281.519531 L 132.070312 282.363281 L 133.75 282.363281 L 133.75 282.894531 L 131.457031 282.894531 Z M 128.492188 281.890625 L 129.082031 281.828125 C 129.117188 282.035156 129.1875 282.1875 129.300781 282.285156 C 129.410156 282.382812 129.554688 282.429688 129.742188 282.429688 C 129.933594 282.429688 130.085938 282.386719 130.183594 282.300781 C 130.277344 282.21875 130.332031 282.113281 130.332031 282 C 130.332031 281.925781 130.308594 281.863281 130.269531 281.808594 C 130.230469 281.757812 130.15625 281.710938 130.054688 281.675781 C 129.984375 281.648438 129.820312 281.605469 129.566406 281.539062 C 129.242188 281.453125 129.015625 281.347656 128.882812 281.226562 C 128.699219 281.054688 128.605469 280.84375 128.605469 280.59375 C 128.605469 280.433594 128.648438 280.285156 128.734375 280.148438 C 128.820312 280.007812 128.945312 279.902344 129.109375 279.828125 C 129.273438 279.757812 129.472656 279.714844 129.699219 279.714844 C 130.074219 279.714844 130.363281 279.804688 130.550781 279.976562 C 130.742188 280.152344 130.84375 280.386719 130.851562 280.675781 L 130.242188 280.695312 C 130.21875 280.53125 130.164062 280.417969 130.074219 280.347656 C 129.992188 280.273438 129.863281 280.238281 129.691406 280.238281 C 129.515625 280.238281 129.378906 280.28125 129.28125 280.355469 C 129.21875 280.402344 129.183594 280.46875 129.183594 280.550781 C 129.183594 280.625 129.214844 280.6875 129.273438 280.742188 C 129.347656 280.808594 129.53125 280.878906 129.828125 280.953125 C 130.125 281.023438 130.339844 281.101562 130.480469 281.179688 C 130.625 281.257812 130.734375 281.367188 130.8125 281.5 C 130.894531 281.632812 130.933594 281.800781 130.933594 282 C 130.933594 282.179688 130.882812 282.351562 130.785156 282.503906 C 130.691406 282.660156 130.558594 282.78125 130.378906 282.855469 C 130.203125 282.929688 129.988281 282.972656 129.722656 282.972656 C 129.34375 282.972656 129.046875 282.878906 128.84375 282.695312 C 128.65625 282.503906 128.53125 282.238281 128.492188 281.890625 Z M 125.609375 279.769531 L 126.222656 279.769531 L 126.222656 281.46875 C 126.222656 281.738281 126.230469 281.910156 126.246094 281.992188 C 126.269531 282.121094 126.332031 282.222656 126.429688 282.300781 C 126.527344 282.382812 126.660156 282.417969 126.828125 282.417969 C 127 282.417969 127.128906 282.382812 127.214844 282.304688 C 127.304688 282.230469 127.351562 282.140625 127.371094 282.035156 C 127.386719 281.929688 127.394531 281.75 127.394531 281.503906 L 127.394531 279.765625 L 127.996094 279.765625 L 127.996094 281.414062 C 127.996094 281.792969 127.980469 282.058594 127.949219 282.210938 C 127.917969 282.367188 127.855469 282.5 127.765625 282.605469 C 127.679688 282.714844 127.558594 282.796875 127.414062 282.863281 C 127.265625 282.925781 127.074219 282.960938 126.835938 282.960938 C 126.546875 282.960938 126.332031 282.925781 126.183594 282.859375 C 126.035156 282.789062 125.917969 282.699219 125.828125 282.589844 C 125.742188 282.480469 125.6875 282.363281 125.660156 282.238281 C 125.621094 282.058594 125.605469 281.796875 125.605469 281.441406 Z M 122.839844 281.335938 C 122.839844 281.691406 122.921875 281.960938 123.078125 282.144531 C 123.238281 282.328125 123.4375 282.421875 123.679688 282.421875 C 123.921875 282.421875 124.121094 282.328125 124.28125 282.144531 C 124.433594 281.964844 124.515625 281.691406 124.515625 281.324219 C 124.515625 280.96875 124.4375 280.695312 124.285156 280.519531 C 124.132812 280.34375 123.929688 280.253906 123.679688 280.253906 C 123.429688 280.253906 123.226562 280.34375 123.070312 280.523438 C 122.914062 280.707031 122.839844 280.976562 122.839844 281.335938 Z M 122.214844 281.355469 C 122.214844 281.039062 122.257812 280.765625 122.351562 280.550781 C 122.417969 280.390625 122.515625 280.246094 122.632812 280.121094 C 122.753906 279.996094 122.878906 279.898438 123.023438 279.835938 C 123.210938 279.753906 123.429688 279.710938 123.671875 279.710938 C 124.117188 279.710938 124.46875 279.855469 124.738281 280.140625 C 125.003906 280.429688 125.140625 280.828125 125.140625 281.339844 C 125.140625 281.84375 125.007812 282.242188 124.742188 282.53125 C 124.476562 282.820312 124.125 282.960938 123.683594 282.960938 C 123.234375 282.960938 122.878906 282.820312 122.617188 282.53125 C 122.347656 282.253906 122.214844 281.859375 122.214844 281.355469 Z M 119.296875 282.917969 L 119.296875 279.769531 L 119.910156 279.769531 L 119.910156 281.007812 L 121.082031 281.007812 L 121.082031 279.769531 L 121.699219 279.769531 L 121.699219 282.917969 L 121.082031 282.917969 L 121.082031 281.539062 L 119.914062 281.539062 L 119.914062 282.917969 Z M 119.296875 282.917969 " fill-opacity="1" fill-rule="nonzero"/><path fill="#e31f25" d="M 123.046875 268.207031 C 123.046875 267.628906 122.890625 267.203125 122.574219 266.9375 C 122.261719 266.664062 121.8125 266.53125 121.234375 266.53125 L 120.765625 266.53125 L 120.765625 270.1875 L 121.214844 270.1875 C 121.796875 270.1875 122.246094 270.03125 122.5625 269.710938 C 122.882812 269.394531 123.046875 268.894531 123.046875 268.207031 Z M 131.753906 271.15625 L 130.535156 267.976562 L 129.335938 271.15625 Z M 136.113281 274.667969 L 131.566406 274.667969 L 131.566406 274.1875 C 131.785156 274.171875 132.035156 274.132812 132.324219 274.070312 C 132.609375 274.003906 132.753906 273.921875 132.753906 273.828125 C 132.753906 273.792969 132.75 273.757812 132.746094 273.71875 C 132.742188 273.679688 132.726562 273.621094 132.699219 273.550781 L 131.984375 271.742188 L 129.089844 271.742188 C 129.023438 271.910156 128.953125 272.109375 128.871094 272.332031 C 128.792969 272.558594 128.71875 272.757812 128.664062 272.933594 C 128.589844 273.164062 128.542969 273.328125 128.53125 273.429688 C 128.519531 273.535156 128.507812 273.609375 128.507812 273.648438 C 128.507812 273.777344 128.601562 273.890625 128.796875 273.980469 C 128.984375 274.074219 129.308594 274.140625 129.75 274.179688 L 129.75 274.660156 L 123.847656 274.660156 C 123.289062 273.78125 122.832031 273.082031 122.464844 272.558594 C 122.097656 272.035156 121.640625 271.4375 121.097656 270.75 L 120.765625 270.75 L 120.765625 273.382812 C 120.765625 273.527344 120.792969 273.652344 120.84375 273.753906 C 120.898438 273.855469 121 273.941406 121.148438 274.011719 C 121.226562 274.046875 121.34375 274.078125 121.503906 274.113281 C 121.660156 274.148438 121.796875 274.171875 121.914062 274.183594 L 121.914062 274.660156 L 117.464844 274.660156 L 117.464844 274.179688 C 117.464844 274.179688 117.722656 274.148438 117.910156 274.125 C 118.09375 274.105469 118.226562 274.078125 118.308594 274.042969 C 118.457031 273.976562 118.554688 273.894531 118.605469 273.792969 C 118.65625 273.691406 118.683594 273.566406 118.691406 273.414062 L 118.691406 267.296875 C 118.683594 267.148438 118.660156 267.023438 118.621094 266.925781 C 118.578125 266.828125 118.46875 266.746094 118.308594 266.671875 C 118.179688 266.617188 118.035156 266.574219 117.859375 266.53125 C 117.6875 266.496094 117.550781 266.46875 117.460938 266.453125 L 117.460938 265.984375 L 122.140625 265.984375 C 123.183594 265.980469 123.980469 266.152344 124.523438 266.488281 C 125.066406 266.828125 125.339844 267.34375 125.339844 268.035156 C 125.339844 268.644531 125.171875 269.136719 124.835938 269.503906 C 124.5 269.871094 123.988281 270.160156 123.304688 270.371094 C 123.570312 270.730469 123.882812 271.148438 124.234375 271.617188 C 124.589844 272.085938 124.960938 272.574219 125.34375 273.066406 C 125.46875 273.226562 125.628906 273.421875 125.84375 273.648438 C 126.050781 273.878906 126.234375 274.019531 126.398438 274.074219 C 126.472656 274.101562 126.570312 274.121094 126.679688 274.136719 C 126.710938 274.132812 126.738281 274.121094 126.769531 274.117188 C 126.933594 274.082031 127.0625 274.039062 127.152344 273.972656 C 127.3125 273.875 127.449219 273.753906 127.558594 273.609375 C 127.671875 273.464844 127.761719 273.296875 127.835938 273.097656 C 128.292969 271.949219 128.746094 270.800781 129.203125 269.648438 C 129.660156 268.496094 130.714844 265.84375 130.714844 265.84375 L 131.894531 265.84375 C 132.664062 267.8125 133.261719 269.371094 133.695312 270.511719 C 134.132812 271.65625 134.5 272.605469 134.804688 273.355469 C 134.855469 273.480469 134.917969 273.589844 135 273.6875 C 135.078125 273.789062 135.1875 273.882812 135.332031 273.972656 C 135.445312 274.039062 135.570312 274.085938 135.714844 274.117188 C 135.859375 274.148438 135.992188 274.171875 136.105469 274.179688 L 136.105469 274.667969 Z M 142.078125 272.242188 C 142.078125 271.640625 141.90625 271.175781 141.5625 270.851562 C 141.21875 270.527344 140.722656 270.367188 140.074219 270.367188 C 140 270.367188 139.902344 270.367188 139.777344 270.375 C 139.65625 270.378906 139.5625 270.390625 139.503906 270.394531 L 139.503906 273.578125 C 139.539062 273.726562 139.652344 273.855469 139.835938 273.957031 C 140.023438 274.066406 140.242188 274.113281 140.507812 274.113281 C 140.976562 274.113281 141.355469 273.949219 141.644531 273.621094 C 141.933594 273.296875 142.078125 272.835938 142.078125 272.242188 Z M 141.667969 268.0625 C 141.667969 267.578125 141.535156 267.203125 141.277344 266.9375 C 141.015625 266.664062 140.621094 266.53125 140.101562 266.53125 C 140.027344 266.53125 139.929688 266.53125 139.808594 266.542969 C 139.691406 266.546875 139.589844 266.554688 139.5 266.558594 L 139.5 269.78125 L 139.808594 269.78125 C 140.445312 269.78125 140.914062 269.628906 141.21875 269.320312 C 141.519531 269.007812 141.667969 268.589844 141.667969 268.0625 Z M 143.570312 270.675781 C 143.824219 270.859375 144.027344 271.085938 144.183594 271.355469 C 144.34375 271.625 144.417969 271.949219 144.417969 272.316406 C 144.417969 272.761719 144.332031 273.132812 144.148438 273.433594 C 143.96875 273.738281 143.710938 273.980469 143.375 274.152344 C 143.023438 274.339844 142.617188 274.472656 142.152344 274.550781 C 141.691406 274.628906 141.148438 274.667969 140.523438 274.667969 L 136.179688 274.667969 L 136.179688 274.1875 C 136.304688 274.175781 136.453125 274.15625 136.644531 274.136719 C 136.828125 274.109375 136.957031 274.082031 137.03125 274.050781 C 137.179688 273.988281 137.28125 273.910156 137.328125 273.808594 C 137.382812 273.707031 137.410156 273.578125 137.410156 273.417969 L 137.410156 267.289062 C 137.410156 267.144531 137.386719 267.019531 137.34375 266.921875 C 137.296875 266.824219 137.191406 266.738281 137.027344 266.664062 C 136.90625 266.613281 136.765625 266.566406 136.601562 266.53125 C 136.4375 266.496094 136.296875 266.46875 136.171875 266.449219 L 136.171875 265.96875 L 140.703125 265.96875 C 141.839844 265.96875 142.664062 266.132812 143.167969 266.457031 C 143.675781 266.785156 143.929688 267.269531 143.929688 267.90625 C 143.929688 268.199219 143.871094 268.460938 143.757812 268.683594 C 143.644531 268.90625 143.484375 269.097656 143.265625 269.261719 C 143.078125 269.414062 142.847656 269.546875 142.578125 269.652344 C 142.3125 269.765625 142.027344 269.859375 141.722656 269.929688 L 141.722656 270.046875 C 142.03125 270.078125 142.34375 270.148438 142.675781 270.261719 C 143.007812 270.367188 143.292969 270.507812 143.535156 270.675781 Z M 113.222656 274.921875 C 112.613281 274.921875 112.039062 274.816406 111.503906 274.609375 C 110.96875 274.402344 110.507812 274.105469 110.113281 273.710938 C 109.726562 273.324219 109.421875 272.851562 109.195312 272.28125 C 108.96875 271.714844 108.859375 271.089844 108.859375 270.417969 C 108.859375 269.742188 108.96875 269.113281 109.199219 268.539062 C 109.425781 267.96875 109.742188 267.46875 110.148438 267.046875 C 110.550781 266.632812 111.03125 266.3125 111.59375 266.085938 C 112.152344 265.859375 112.757812 265.742188 113.398438 265.742188 C 113.863281 265.742188 114.28125 265.800781 114.664062 265.921875 C 115.042969 266.035156 115.367188 266.171875 115.632812 266.320312 L 116 265.984375 L 116.507812 265.984375 L 116.554688 269.15625 L 116.027344 269.15625 C 115.738281 268.1875 115.378906 267.472656 114.96875 267.015625 C 114.558594 266.5625 114.054688 266.332031 113.464844 266.332031 C 112.726562 266.332031 112.167969 266.671875 111.78125 267.347656 C 111.398438 268.027344 111.203125 268.980469 111.203125 270.203125 C 111.203125 270.894531 111.269531 271.488281 111.402344 271.976562 C 111.535156 272.464844 111.707031 272.859375 111.917969 273.160156 C 112.144531 273.46875 112.414062 273.699219 112.726562 273.847656 C 113.035156 273.992188 113.375 274.066406 113.753906 274.066406 C 114.304688 274.066406 114.792969 273.910156 115.222656 273.59375 C 115.648438 273.285156 116.042969 272.8125 116.394531 272.179688 L 116.902344 272.5 C 116.734375 272.859375 116.542969 273.183594 116.324219 273.464844 C 116.109375 273.75 115.863281 273.992188 115.578125 274.203125 C 115.269531 274.421875 114.929688 274.601562 114.550781 274.730469 C 114.171875 274.859375 113.730469 274.921875 113.222656 274.921875 " fill-opacity="1" fill-rule="nonzero"/><g fill="#000000" fill-opacity="1"><g transform="translate(34.932058, 275.678053)"><g><path d="M 14.953125 -29.203125 C 17.097656 -29.203125 19.039062 -28.820312 20.78125 -28.0625 C 22.519531 -27.300781 23.941406 -26.242188 25.046875 -24.890625 C 26.160156 -23.546875 26.890625 -22.007812 27.234375 -20.28125 C 27.304688 -19.96875 27.34375 -19.71875 27.34375 -19.53125 C 27.34375 -19.300781 27.296875 -19.144531 27.203125 -19.0625 C 27.117188 -18.988281 26.957031 -18.941406 26.71875 -18.921875 L 19.921875 -18.484375 C 19.660156 -18.484375 19.492188 -18.53125 19.421875 -18.625 C 19.347656 -18.71875 19.269531 -18.921875 19.1875 -19.234375 C 18.957031 -20.472656 18.53125 -21.445312 17.90625 -22.15625 C 17.28125 -22.875 16.375 -23.234375 15.1875 -23.234375 C 13.65625 -23.234375 12.472656 -22.554688 11.640625 -21.203125 C 10.816406 -19.859375 10.40625 -17.671875 10.40625 -14.640625 C 10.40625 -11.503906 10.785156 -9.273438 11.546875 -7.953125 C 12.316406 -6.640625 13.519531 -5.984375 15.15625 -5.984375 C 16.519531 -5.984375 17.6875 -6.332031 18.65625 -7.03125 C 19.632812 -7.726562 20.445312 -8.894531 21.09375 -10.53125 C 21.164062 -10.757812 21.382812 -10.875 21.75 -10.875 C 21.9375 -10.875 22.082031 -10.863281 22.1875 -10.84375 L 27.03125 -9.859375 C 27.425781 -9.734375 27.625 -9.4375 27.625 -8.96875 C 27.625 -8.25 27.175781 -7.128906 26.28125 -5.609375 C 25.382812 -4.097656 23.984375 -2.71875 22.078125 -1.46875 C 20.179688 -0.226562 17.78125 0.390625 14.875 0.390625 C 12.132812 0.390625 9.726562 -0.257812 7.65625 -1.5625 C 5.582031 -2.875 3.984375 -4.675781 2.859375 -6.96875 C 1.734375 -9.257812 1.171875 -11.867188 1.171875 -14.796875 C 1.171875 -17.703125 1.734375 -20.238281 2.859375 -22.40625 C 3.984375 -24.582031 5.585938 -26.257812 7.671875 -27.4375 C 9.753906 -28.613281 12.179688 -29.203125 14.953125 -29.203125 Z M 14.953125 -29.203125 "/></g></g></g><g fill="#000000" fill-opacity="1"><g transform="translate(63.554107, 275.678053)"><g><path d="M 27.234375 -1.25 C 27.285156 -1.144531 27.3125 -1 27.3125 -0.8125 C 27.3125 -0.582031 27.238281 -0.390625 27.09375 -0.234375 C 26.945312 -0.078125 26.757812 0 26.53125 0 L 19 0 C 18.445312 0 18.097656 -0.269531 17.953125 -0.8125 L 14.296875 -10.84375 C 14.210938 -11.039062 14.082031 -11.191406 13.90625 -11.296875 C 13.726562 -11.398438 13.457031 -11.453125 13.09375 -11.453125 L 11.296875 -11.453125 C 11.148438 -11.453125 11.035156 -11.398438 10.953125 -11.296875 C 10.878906 -11.191406 10.84375 -11.101562 10.84375 -11.03125 L 10.84375 -1.125 C 10.84375 -0.707031 10.738281 -0.414062 10.53125 -0.25 C 10.320312 -0.0820312 10 0 9.5625 0 L 3.03125 0 C 2.644531 0 2.378906 -0.078125 2.234375 -0.234375 C 2.085938 -0.390625 2.015625 -0.632812 2.015625 -0.96875 L 2.015625 -27.921875 C 2.015625 -28.523438 2.265625 -28.828125 2.765625 -28.828125 L 15.734375 -28.828125 C 19.484375 -28.828125 22.394531 -28.109375 24.46875 -26.671875 C 26.539062 -25.234375 27.578125 -23.207031 27.578125 -20.59375 C 27.578125 -18.800781 27.101562 -17.207031 26.15625 -15.8125 C 25.21875 -14.414062 23.992188 -13.429688 22.484375 -12.859375 C 22.328125 -12.773438 22.25 -12.644531 22.25 -12.46875 C 22.25 -12.394531 22.273438 -12.28125 22.328125 -12.125 Z M 15.375 -17.25 C 16.363281 -17.25 17.125 -17.5 17.65625 -18 C 18.1875 -18.507812 18.453125 -19.191406 18.453125 -20.046875 C 18.453125 -21.003906 18.132812 -21.75 17.5 -22.28125 C 16.863281 -22.8125 16.082031 -23.078125 15.15625 -23.078125 L 11.734375 -23.078125 C 11.390625 -23.078125 11.15625 -23.015625 11.03125 -22.890625 C 10.90625 -22.773438 10.84375 -22.578125 10.84375 -22.296875 L 10.84375 -18.0625 C 10.84375 -17.78125 10.882812 -17.570312 10.96875 -17.4375 C 11.0625 -17.3125 11.238281 -17.25 11.5 -17.25 Z M 15.375 -17.25 "/></g></g></g><g fill="#000000" fill-opacity="1"><g transform="translate(92.24846, 275.678053)"><g/></g></g><g fill="#000000" fill-opacity="1"><g transform="translate(100.015634, 275.678053)"><g/></g></g><g fill="#000000" fill-opacity="1"><g transform="translate(107.782807, 275.678053)"><g/></g></g><g fill="#000000" fill-opacity="1"><g transform="translate(115.54998, 275.678053)"><g/></g></g><g fill="#000000" fill-opacity="1"><g transform="translate(123.317153, 275.678053)"><g/></g></g><g fill="#000000" fill-opacity="1"><g transform="translate(131.084327, 275.678053)"><g/></g></g><g fill="#000000" fill-opacity="1"><g transform="translate(138.8515, 275.678053)"><g/></g></g><g fill="#000000" fill-opacity="1"><g transform="translate(146.618673, 275.678053)"><g/></g></g><g fill="#000000" fill-opacity="1"><g transform="translate(154.385847, 275.678053)"><g/></g></g><g fill="#000000" fill-opacity="1"><g transform="translate(162.1508, 275.678053)"><g><path d="M 2.90625 0 C 2.65625 0 2.441406 -0.0820312 2.265625 -0.25 C 2.097656 -0.414062 2.015625 -0.617188 2.015625 -0.859375 L 2.015625 -27.8125 C 2.015625 -28.09375 2.101562 -28.332031 2.28125 -28.53125 C 2.46875 -28.726562 2.703125 -28.828125 2.984375 -28.828125 L 14.5625 -28.828125 C 18.601562 -28.828125 21.664062 -28.179688 23.75 -26.890625 C 25.832031 -25.609375 26.875 -23.710938 26.875 -21.203125 C 26.875 -19.835938 26.5 -18.679688 25.75 -17.734375 C 25 -16.785156 23.679688 -15.875 21.796875 -15 C 21.742188 -14.96875 21.71875 -14.921875 21.71875 -14.859375 C 21.71875 -14.796875 21.742188 -14.75 21.796875 -14.71875 C 23.890625 -13.945312 25.375 -13.03125 26.25 -11.96875 C 27.132812 -10.90625 27.578125 -9.53125 27.578125 -7.84375 C 27.578125 -5.175781 26.5625 -3.203125 24.53125 -1.921875 C 22.5 -0.640625 19.382812 0 15.1875 0 Z M 15.1875 -17.5625 C 16.09375 -17.5625 16.816406 -17.804688 17.359375 -18.296875 C 17.898438 -18.785156 18.171875 -19.421875 18.171875 -20.203125 C 18.171875 -21.023438 17.859375 -21.695312 17.234375 -22.21875 C 16.617188 -22.738281 15.847656 -23 14.921875 -23 L 11.734375 -23 C 11.390625 -23 11.15625 -22.9375 11.03125 -22.8125 C 10.90625 -22.695312 10.84375 -22.5 10.84375 -22.21875 L 10.84375 -18.40625 C 10.84375 -18.101562 10.890625 -17.882812 10.984375 -17.75 C 11.085938 -17.625 11.257812 -17.5625 11.5 -17.5625 Z M 15 -5.828125 C 16.0625 -5.828125 16.894531 -6.125 17.5 -6.71875 C 18.101562 -7.3125 18.40625 -8.007812 18.40625 -8.8125 C 18.40625 -9.613281 18.109375 -10.273438 17.515625 -10.796875 C 16.921875 -11.316406 16.144531 -11.578125 15.1875 -11.578125 L 11.734375 -11.578125 C 11.390625 -11.578125 11.15625 -11.507812 11.03125 -11.375 C 10.90625 -11.25 10.84375 -11.046875 10.84375 -10.765625 L 10.84375 -6.6875 C 10.84375 -6.375 10.890625 -6.148438 10.984375 -6.015625 C 11.085938 -5.890625 11.257812 -5.828125 11.5 -5.828125 Z M 15 -5.828125 "/></g></g></g><g fill="#000000" fill-opacity="1"><g transform="translate(190.85052, 275.678053)"><g/></g></g><g fill="#000000" fill-opacity="1"><g transform="translate(198.617693, 275.678053)"><g><path d="M 11.453125 -11.53125 C 11.273438 -11.53125 11.128906 -11.472656 11.015625 -11.359375 C 10.898438 -11.242188 10.84375 -11.109375 10.84375 -10.953125 L 10.84375 -1.125 C 10.84375 -0.707031 10.738281 -0.414062 10.53125 -0.25 C 10.320312 -0.0820312 10 0 9.5625 0 L 3.0625 0 C 2.675781 0 2.40625 -0.078125 2.25 -0.234375 C 2.09375 -0.390625 2.015625 -0.632812 2.015625 -0.96875 L 2.015625 -27.921875 C 2.015625 -28.210938 2.078125 -28.4375 2.203125 -28.59375 C 2.335938 -28.75 2.523438 -28.828125 2.765625 -28.828125 L 10.140625 -28.828125 C 10.347656 -28.828125 10.515625 -28.753906 10.640625 -28.609375 C 10.773438 -28.460938 10.84375 -28.257812 10.84375 -28 L 10.84375 -19 C 10.84375 -18.476562 11.070312 -18.21875 11.53125 -18.21875 L 18.0625 -18.21875 C 18.53125 -18.21875 18.765625 -18.476562 18.765625 -19 L 18.765625 -28 C 18.765625 -28.257812 18.828125 -28.460938 18.953125 -28.609375 C 19.085938 -28.753906 19.253906 -28.828125 19.453125 -28.828125 L 26.84375 -28.828125 C 27.070312 -28.828125 27.25 -28.75 27.375 -28.59375 C 27.507812 -28.4375 27.578125 -28.210938 27.578125 -27.921875 L 27.578125 -0.96875 C 27.578125 -0.632812 27.5 -0.390625 27.34375 -0.234375 C 27.1875 -0.078125 26.914062 0 26.53125 0 L 20.046875 0 C 19.609375 0 19.285156 -0.0820312 19.078125 -0.25 C 18.867188 -0.414062 18.765625 -0.707031 18.765625 -1.125 L 18.765625 -10.953125 C 18.765625 -11.109375 18.703125 -11.242188 18.578125 -11.359375 C 18.460938 -11.472656 18.316406 -11.53125 18.140625 -11.53125 Z M 11.453125 -11.53125 "/></g></g></g><g fill="#000000" fill-opacity="1"><g transform="translate(228.210636, 275.678053)"><g><path d="M 15.1875 0.390625 C 12.363281 0.390625 9.894531 -0.207031 7.78125 -1.40625 C 5.675781 -2.613281 4.050781 -4.320312 2.90625 -6.53125 C 1.769531 -8.75 1.203125 -11.347656 1.203125 -14.328125 C 1.203125 -17.304688 1.773438 -19.914062 2.921875 -22.15625 C 4.078125 -24.394531 5.710938 -26.128906 7.828125 -27.359375 C 9.941406 -28.585938 12.394531 -29.203125 15.1875 -29.203125 C 17.957031 -29.203125 20.390625 -28.585938 22.484375 -27.359375 C 24.585938 -26.128906 26.210938 -24.394531 27.359375 -22.15625 C 28.515625 -19.914062 29.09375 -17.304688 29.09375 -14.328125 C 29.09375 -11.378906 28.519531 -8.789062 27.375 -6.5625 C 26.238281 -4.332031 24.625 -2.613281 22.53125 -1.40625 C 20.4375 -0.207031 17.988281 0.390625 15.1875 0.390625 Z M 15.1875 -5.671875 C 16.320312 -5.671875 17.226562 -5.945312 17.90625 -6.5 C 18.582031 -7.0625 19.070312 -7.960938 19.375 -9.203125 C 19.6875 -10.453125 19.84375 -12.125 19.84375 -14.21875 C 19.84375 -17.425781 19.476562 -19.726562 18.75 -21.125 C 18.03125 -22.53125 16.84375 -23.234375 15.1875 -23.234375 C 13.5 -23.234375 12.285156 -22.53125 11.546875 -21.125 C 10.816406 -19.726562 10.453125 -17.425781 10.453125 -14.21875 C 10.453125 -12.125 10.601562 -10.453125 10.90625 -9.203125 C 11.21875 -7.960938 11.71875 -7.0625 12.40625 -6.5 C 13.09375 -5.945312 14.019531 -5.671875 15.1875 -5.671875 Z M 15.1875 -5.671875 "/></g></g></g><g fill="#000000" fill-opacity="1"><g transform="translate(258.502619, 275.678053)"><g><path d="M 26.5625 -11.375 C 26.5625 -7.132812 25.488281 -4.113281 23.34375 -2.3125 C 21.195312 -0.507812 18.128906 0.390625 14.140625 0.390625 C 9.660156 0.390625 6.46875 -0.644531 4.5625 -2.71875 C 2.65625 -4.789062 1.703125 -7.9375 1.703125 -12.15625 L 1.703125 -27.921875 C 1.703125 -28.210938 1.765625 -28.4375 1.890625 -28.59375 C 2.023438 -28.75 2.210938 -28.828125 2.453125 -28.828125 L 9.828125 -28.828125 C 10.296875 -28.828125 10.53125 -28.550781 10.53125 -28 L 10.53125 -11.21875 C 10.53125 -9.300781 10.894531 -7.914062 11.625 -7.0625 C 12.363281 -6.207031 13.421875 -5.78125 14.796875 -5.78125 C 16.140625 -5.78125 17.226562 -6.207031 18.0625 -7.0625 C 18.894531 -7.914062 19.3125 -9.34375 19.3125 -11.34375 L 19.3125 -27.921875 C 19.3125 -28.523438 19.554688 -28.828125 20.046875 -28.828125 L 25.875 -28.828125 C 26.332031 -28.828125 26.5625 -28.550781 26.5625 -28 Z M 26.5625 -11.375 "/></g></g></g><g fill="#000000" fill-opacity="1"><g transform="translate(286.775143, 275.678053)"><g><path d="M 19.1875 -21.09375 C 18.5625 -21.769531 17.894531 -22.285156 17.1875 -22.640625 C 16.476562 -23.003906 15.445312 -23.1875 14.09375 -23.1875 C 12.75 -23.1875 11.753906 -22.992188 11.109375 -22.609375 C 10.460938 -22.222656 10.140625 -21.753906 10.140625 -21.203125 C 10.140625 -20.273438 10.96875 -19.617188 12.625 -19.234375 L 19.078125 -17.5625 C 21.429688 -16.957031 23.203125 -15.910156 24.390625 -14.421875 C 25.585938 -12.941406 26.1875 -11.164062 26.1875 -9.09375 C 26.1875 -7.175781 25.679688 -5.503906 24.671875 -4.078125 C 23.660156 -2.648438 22.210938 -1.546875 20.328125 -0.765625 C 18.453125 0.00390625 16.257812 0.390625 13.75 0.390625 C 10.90625 0.390625 8.3125 -0.0820312 5.96875 -1.03125 C 3.625 -1.976562 2 -3.210938 1.09375 -4.734375 C 0.957031 -4.992188 0.890625 -5.191406 0.890625 -5.328125 C 0.890625 -5.578125 1.035156 -5.804688 1.328125 -6.015625 L 5.328125 -8.78125 C 5.609375 -8.957031 5.863281 -9.046875 6.09375 -9.046875 C 6.382812 -9.046875 6.617188 -8.929688 6.796875 -8.703125 C 7.679688 -7.554688 8.578125 -6.75 9.484375 -6.28125 C 10.390625 -5.820312 11.59375 -5.59375 13.09375 -5.59375 C 14.539062 -5.59375 15.6875 -5.789062 16.53125 -6.1875 C 17.375 -6.59375 17.796875 -7.144531 17.796875 -7.84375 C 17.796875 -8.332031 17.585938 -8.757812 17.171875 -9.125 C 16.753906 -9.488281 16.144531 -9.757812 15.34375 -9.9375 L 9.4375 -11.375 C 7.101562 -11.945312 5.25 -13.015625 3.875 -14.578125 C 2.507812 -16.148438 1.828125 -17.957031 1.828125 -20 C 1.828125 -21.6875 2.316406 -23.234375 3.296875 -24.640625 C 4.285156 -26.054688 5.6875 -27.171875 7.5 -27.984375 C 9.3125 -28.796875 11.410156 -29.203125 13.796875 -29.203125 C 16.117188 -29.203125 18.273438 -28.820312 20.265625 -28.0625 C 22.265625 -27.300781 23.707031 -26.285156 24.59375 -25.015625 C 24.769531 -24.785156 24.859375 -24.566406 24.859375 -24.359375 C 24.859375 -24.171875 24.769531 -24 24.59375 -23.84375 L 20.359375 -20.78125 C 20.222656 -20.675781 20.078125 -20.625 19.921875 -20.625 C 19.742188 -20.625 19.5 -20.78125 19.1875 -21.09375 Z M 19.1875 -21.09375 "/></g></g></g><g fill="#000000" fill-opacity="1"><g transform="translate(313.99909, 275.678053)"><g><path d="M 2.015625 -27.921875 C 2.015625 -28.523438 2.265625 -28.828125 2.765625 -28.828125 L 23.734375 -28.828125 C 24.203125 -28.828125 24.4375 -28.550781 24.4375 -28 L 24.390625 -23.5 C 24.390625 -22.800781 24.054688 -22.453125 23.390625 -22.453125 L 11.734375 -22.453125 C 11.140625 -22.453125 10.84375 -22.207031 10.84375 -21.71875 L 10.84375 -18.40625 C 10.84375 -18.15625 10.90625 -17.957031 11.03125 -17.8125 C 11.15625 -17.664062 11.320312 -17.59375 11.53125 -17.59375 L 18.53125 -17.59375 C 19.070312 -17.59375 19.34375 -17.332031 19.34375 -16.8125 L 19.34375 -12 C 19.34375 -11.5625 19.109375 -11.34375 18.640625 -11.34375 L 11.453125 -11.34375 C 11.273438 -11.34375 11.128906 -11.289062 11.015625 -11.1875 C 10.898438 -11.082031 10.84375 -10.953125 10.84375 -10.796875 L 10.84375 -6.921875 C 10.84375 -6.710938 10.875 -6.566406 10.9375 -6.484375 C 11 -6.410156 11.117188 -6.375 11.296875 -6.375 L 23.921875 -6.375 C 24.492188 -6.375 24.78125 -6.125 24.78125 -5.625 L 24.78125 -0.859375 C 24.78125 -0.597656 24.703125 -0.390625 24.546875 -0.234375 C 24.390625 -0.078125 24.15625 0 23.84375 0 L 3.0625 0 C 2.675781 0 2.40625 -0.078125 2.25 -0.234375 C 2.09375 -0.390625 2.015625 -0.632812 2.015625 -0.96875 Z M 2.015625 -27.921875 "/></g></g></g></svg>