<?xml version="1.0" encoding="utf-8"?>
<!-- Generator: Adobe Illustrator 22.0.1, SVG Export Plug-In . SVG Version: 6.00 Build 0)  -->
<svg version="1.1" id="Layer_1" xmlns="http://www.w3.org/2000/svg" xmlns:xlink="http://www.w3.org/1999/xlink" x="0px" y="0px" width="400" height="200"
	 viewBox="0 0 2480 1404.2" style="enable-background:new 0 0 2480 1404.2;" xml:space="preserve">
<style type="text/css">
	.st0{fill:#FFFFFF;stroke:#A86282;stroke-width:6.846596e-02;stroke-miterlimit:2.6131;}
	.st1{fill:#5E1B13;stroke:#2B2B2A;stroke-width:6.846596e-02;stroke-miterlimit:2.6131;}
	.st2{fill:#DE242F;stroke:#2B2B2A;stroke-width:6.846596e-02;stroke-miterlimit:2.6131;}
	.st3{fill:#ECB8BF;stroke:#2B2B2A;stroke-width:6.846596e-02;stroke-miterlimit:2.6131;}
	.st4{fill:#E31F25;}
	.st5{fill:#2B2B2A;}
</style>
<g>
	<path id="path26_1_" class="st0" d="M1977.9,917.4c0,11.2-0.8,22.4-2.2,33.5c-5.2,38.8-19.1,76.2-38.9,109.8
		c-46.2,78.2-227.8,147.6-227.8,147.6h-50.7c-34.6,0-56.1-13.5-65.2-47.3l-3.8-14.3l14.3-3.8c15-4,32.4-16.6,44.3-26.3
		c18.5-15.2,35.6-33.4,50.4-52.3c8.2-10.6,17.4-23.7,25.5-38c-2.1,0.9-4.4,1.8-6.7,2.6c-9.8,3.4-20.1,7.8-28.3,14.2
		c-5.4,4.3-9.4,9.3-14.1,14.2c-10,10.5-20.3,15.9-34.3,19.7l-2.8,0.8v3.8h-14.2h-1.7h-173.7v111.3h-109.5h-65.5h-71.7h-117.8v-73.9
		v-37.3H924.7h-13.3l-6.1-4.1l-3.6-2.4c-13-8.7-22.5-18.9-34.1-28.8c-14.3-12.3-27.4-17.2-44.4-18.8c12.6,20.3,29.6,38.5,48,55.4
		c17.1,15.8,35.6,30.3,52.4,46.4c13.3,12.7,28.5,29.2,30.1,48.5l1.1,12.7c-61.6,14.4-50.4,17.8-124.7,17.8
		c-71.5,0-144.7-54-188.4-106.8c-90.8-109.7-71-202.2-49.5-326.9l9.6-2.2c9.2-2.2,14.6-5,22.9-8.8l1.6-5.5l0.3-15.1L613.9,726
		l-19.5-15.2c-28-21.8-33.1-86.6-33.1-120.4l-7.3-25.8v-39.6c0-40.2,2.6-97.8,35.2-124.2l1.2-14.9c3.3-40.7,24.2-68.9,57.3-91
		l3.7-2.5h11.2c0,0,1.7-2.8,3-4.9c22.9-38.3,52.9-59.3,98.9-60.3l19.4-0.4l-2.7,10.8l85,48.8l5.4,1.3c8.4-6.8,17-13.4,25.7-19.9
		c15.2-11.3,31-22.5,47.1-32.5c24.6-15.4,52.8-28,79.7-38.8c33.6-13.5,68.4-24.9,103.4-34.2c46.3-12.3,97.7-22.2,145.8-22.2
		c39.9,0,81.7,7.2,120.5,16.6c45.6,11.1,90.8,26.3,134.1,44.4c53.3,22.2,109,50.9,156.5,85.8l112.1-59.6
		c38.1,0.8,83.3,22.2,93.9,61.8c15.6-4.5,27.8,0.4,38,10.8l72.5,130.4l6.3,95v29.2l-14.6,21.6v36.3c0,19.8-2.6,35-7.8,53.9
		c-3.2,11.8-11.7,44-12.7,56.3l-44-1C1958.7,780.7,1985.1,841.9,1977.9,917.4L1977.9,917.4z"/>
	<g id="g28_1_">
		<path id="path30_1_" class="st1" d="M793.6,547h-14.4c13.5,105.6,173,203.5,305.2,203.5h391.9c119.6,0,288.4-101.7,290.7-203.5
			c-39.2,26.2-39.3,49.4-99.3,75.1c-36.1,15.5-98.5,26.7-147.8,26.7h-36c-41.4,0-112.1-58.1-196.2-58.1
			c-114.6,0-167.2,58.1-232.6,58.1h-58.1C925.8,648.7,807.9,600.3,793.6,547L793.6,547z"/>
		<path id="path32_1_" class="st2" d="M1810.6,278.3l65.4,14.5c-7.8-29.1-42.9-50-79.9-50.8l-1.1,15.4L1810.6,278.3z"/>
		<path id="path34_1_" class="st2" d="M757.6,271l7.3-29c-44.9,1-68.9,23.5-86.5,53.1L757.6,271z"/>
		<path id="path36_1_" class="st2" d="M757.6,271.1l0.8,20.6l35.5,23h14.5l31.8-26.1l-65.6-37.7L757.6,271.1z"/>
		<path id="path38_1_" class="st2" d="M1803.2,278.3l-14.1-7.9l-0.4-13.9l-13.2-5.2l-59.4,34.3c7,6.1,26.5,29,36.3,29
			c21.1,0,26.5-15.3,50.8-21.8L1803.2,278.3z"/>
		<path id="path40_1_" class="st3" d="M793.9,329.2l8.5-6.1l6.1-8.5h-14.5v7.3V329.2z"/>
		<path id="path42_1_" class="st2" d="M1883.1,321.9l-7.3-14.5l-116.5,14.7l29.6,45l94.1-16.1V321.9z"/>
		<path id="path44_1_" class="st2" d="M663.2,343.7l7.3-36.3h-14.5c-25.5,17.1-47.6,40.4-50.8,79.9L663.2,343.7z"/>
		<path id="path46_1_" class="st2" d="M677.6,350.9l92.1,13l24.3-34.9v-7.3l-116.3-14.5V350.9z"/>
		<path id="path48_1_" class="st2" d="M1905,314.6l-14.5,7.3l-2.4,17.8l70.9,45.9l-39.4-71H1905z"/>
		<path id="path50_1_" class="st2" d="M633.9,393.6l0.1,29.9c0,37,45.4,16.2,80.2,14.8c54.5-2.1,25.2-17.7,50.3-67.1L633.9,393.6z"
			/>
		<path id="path52_1_" class="st2" d="M1832.4,380l-29,7.3c12.3,52.6-3.9,47.1,50.5,51.2c25.4,1.9,73,23.9,73-14.9V409
			C1926.8,380.2,1858.5,380.5,1832.4,380z"/>
		<path id="path54_1_" class="st2" d="M568.8,525.2c15.9-18.3,58.1-71.5,58.1-101.7v-21.8C574.5,406.1,568.8,469.9,568.8,525.2z"/>
		<path id="path56_1_" class="st2" d="M1919.6,568.7l21.8-36.3v-14.5l-123.3-72.5l0.1,72.3L1919.6,568.7z"/>
		<path id="path58_1_" class="st2" d="M1934.1,438.1c0,16,46.6,78.7,58.1,87.1c0-56.6-12.7-112.9-58.1-123.5V438.1z"/>
		<path id="path60_1_" class="st2" d="M612.5,532.5l21.8,29c27.4,17,61-26.8,101.7-36.3v-65.4l-7.3-7.3
			C697.6,469,621.4,499.1,612.5,532.5L612.5,532.5z"/>
		<path id="path62_1_" class="st2" d="M779.8,474.4h14.5l-7.3,14.5l-8,15.1l58.8,57.5l13.1-16l-5.8,16l59,44.6l20.9-15.6
			c6.9,26,24.7,29,58.1,29l20.7-0.4l8.3-14.2c4.3,16.2,1.7,21.8,21.8,21.8h7.6c16.6,0,53-21.1,87.1-29c0.6-26.3,3.2-43.5,29-43.5
			l27.7,0.5l8.6,21.2c18.6-8.9,44.2-14.5,72.5-14.5h29c31.2,0,39.3,8.5,65.3,14.5c4.3-16.2,1.7-21.8,21.8-21.8
			c33,0,41,12.6,43.5,43.5c32.2,7.5,73.7,44,108.8,21.8l14.5-14.5v14.5l72.6-14.5l0.4-15.6l14.2,8.3c35.3-2.9,62.4-8.3,65.2-43.2
			l21.9,6.9c13.2-19.7,43.6-39,43.6-65.3c0-4.3-10-15.1-14.5-21.8h21.8v-36.3c0-136.9-330.8-283.1-500.9-283.1
			c-104,0-255.3,51.9-320.9,92.9C907.9,275.7,732.4,399.7,779.8,474.4L779.8,474.4z"/>
		<path id="path64_1_" class="st2" d="M626.9,561.5l-14.1-7.9l-0.4-21.2c-26.8,7.2-36.3,25.9-36.3,58.1c0,37.3,6.6,92.5,27.4,108.7
			L626.9,561.5z"/>
		<path id="path66_1_" class="st2" d="M1933.9,583.3l29,116.2c2.9-35.2,14.5-45.5,14.5-87.1V576c0-26.9-7.1-32.8-21.8-43.6
			l-22.2,36.1L1933.9,583.3z"/>
		<path id="path68_1_" class="st2" d="M866.9,721.7c-50.7-75.4-70.2-55.4-123.9-167.3c-48.9,13.1-100.3,125.9-101.7,188.8h65.4
			c53.4,0,73.6,48.7,105.5,55.6L866.9,721.7z"/>
		<path id="path70_1_" class="st2" d="M1803.3,561.5c-20,85.6-90.3,110.3-123.5,159.8l59.4,78.9c73.9-49.4,39.7-57.1,173-57.1
			c-30-62.5-31.5-146.7-94.4-188.8L1803.3,561.5z"/>
		<path id="path72_1_" class="st2" d="M786.7,931.8c0-32,10.7-51.7,21.8-72.6c-17.9-33.7-52.2-87.2-101.7-87.2h-50.8
			c-26.4,0-25.5,8.6-50.8,14.5l-17.4,101.2l2.9,51.3c0,123.7,136.8,254.2,239.7,254.2h58.1c26.4,0,25.5-8.6,50.8-14.5
			c-4.2-50-152.5-102.2-152.5-225.2L786.7,931.8z"/>
		<path id="path74_1_" class="st2" d="M1745.4,931.9l-14.5-7.3c-39.1,10.4-94.4,68.2-94.4,116.2v21.8c37.6-10.1,23.2-29.7,75.7-47.8
			C1746.7,1002.9,1745.4,975.8,1745.4,931.9L1745.4,931.9z"/>
		<path id="path76_1_" class="st2" d="M812.7,1012c57.4,1,65.2,29.1,97.3,50.6c0-86.3-45.5-115.5-103.4-145.1L812.7,1012z"/>
		<path id="path78_1_" class="st2" d="M1745.2,851.9c0,30.6,14.5,34.7,14.5,72.6v36.3c0,72.1-98.5,181.7-152.5,196.1
			c6.6,24.6,20,36.3,50.8,36.3h50.8c124.4,0,254.2-134.8,254.2-276c0-88.8-5.4-145.3-94.4-145.3h-21.8
			C1811.2,772,1745.2,827,1745.2,851.9L1745.2,851.9z"/>
	</g>
	<path id="path80_1_" class="st4" d="M1400.9,1022.3l8.9,22.5l24.2,1.5l-18.7,15.4l6.1,23.4l-20.4-13l-20.4,13l6.1-23.4l-18.7-15.4
		l24.2-1.5L1400.9,1022.3z"/>
	<path id="path82_1_" class="st4" d="M1332.8,1022.3l8.9,22.5l24.2,1.5l-18.7,15.4l6.1,23.4l-20.4-13l-20.4,13l6.1-23.4l-18.7-15.4
		l24.2-1.5L1332.8,1022.3z"/>
	<path id="path84_1_" class="st4" d="M1264.7,1022.3l8.9,22.5l24.2,1.5l-18.7,15.4l6.1,23.4l-20.4-13l-20.4,13l6.1-23.4l-18.7-15.4
		l24.2-1.5L1264.7,1022.3z"/>
	<path id="path86_1_" class="st4" d="M1196.5,1022.3l8.9,22.5l24.2,1.5l-18.7,15.4l6.1,23.4l-20.4-13l-20.4,13l6.1-23.4l-18.7-15.4
		l24.2-1.5L1196.5,1022.3z"/>
	<path id="path88_1_" class="st4" d="M1128.4,1022.3l8.9,22.5l24.2,1.5l-18.7,15.4l6.1,23.4l-20.4-13l-20.4,13l6.1-23.4l-18.7-15.4
		l24.2-1.5L1128.4,1022.3z"/>
	<path id="path90_1_" class="st5" d="M1452.3,1055.7h169.6v10.5h-169.6V1055.7z"/>
	<path id="path92_1_" class="st5" d="M920.7,1055.7h169.6v10.5H920.7V1055.7z"/>
	<path id="path94_1_" class="st5" d="M1377.5,1176.2v-70.7h50.4v12h-36.5v15.8h34.2v11.7h-34.2v19h38v12H1377.5z M1310.3,1153.3
		l13.4-1.4c0.8,4.7,2.4,8.1,4.9,10.3c2.5,2.2,5.8,3.3,10,3.3c4.4,0,7.8-1,10-2.9c2.2-1.9,3.4-4.2,3.4-6.8c0-1.7-0.5-3.1-1.4-4.3
		c-0.9-1.2-2.6-2.2-4.9-3c-1.6-0.6-5.3-1.6-11-3.1c-7.4-1.9-12.5-4.3-15.5-7c-4.2-3.9-6.3-8.7-6.3-14.3c0-3.6,1-7,2.9-10.1
		c2-3.1,4.8-5.5,8.5-7.2c3.7-1.6,8.2-2.5,13.4-2.5c8.5,0,15,2,19.3,5.9c4.3,3.9,6.6,9.2,6.8,15.7l-13.8,0.5
		c-0.6-3.7-1.8-6.3-3.8-7.9c-1.9-1.6-4.8-2.4-8.7-2.4c-4,0-7.1,0.9-9.3,2.6c-1.4,1.1-2.2,2.6-2.2,4.4c0,1.7,0.7,3.1,2,4.3
		c1.7,1.5,5.9,3.1,12.6,4.8c6.7,1.6,11.6,3.3,14.8,5.1c3.2,1.8,5.7,4.2,7.5,7.2c1.8,3,2.7,6.8,2.7,11.3c0,4.1-1.1,7.9-3.3,11.4
		c-2.2,3.5-5.2,6.2-9.2,7.9c-4,1.7-8.9,2.6-14.9,2.6c-8.6,0-15.3-2.1-19.9-6.2C1314,1167.2,1311.2,1161.2,1310.3,1153.3
		L1310.3,1153.3z M1245,1105.5h13.9v38.3c0,6.1,0.2,10,0.5,11.8c0.6,2.9,2,5.2,4.2,7c2.2,1.8,5.2,2.6,9,2.6c3.9,0,6.8-0.8,8.8-2.5
		c2-1.7,3.1-3.7,3.5-6.1c0.4-2.4,0.6-6.4,0.6-12v-39.2h13.6v37.2c0,8.5-0.4,14.5-1.1,18c-0.7,3.5-2.1,6.5-4.1,8.9
		c-2,2.4-4.7,4.3-8,5.8c-3.4,1.4-7.7,2.2-13.1,2.2c-6.5,0-11.4-0.8-14.8-2.3c-3.3-1.6-6-3.6-8-6.1c-2-2.5-3.2-5.1-3.8-7.9
		c-0.9-4.1-1.3-10-1.3-18L1245,1105.5z M1182.3,1140.8c0,8,1.8,14.1,5.4,18.3c3.6,4.1,8.1,6.2,13.6,6.2c5.5,0,10-2.1,13.6-6.2
		c3.5-4.1,5.3-10.3,5.3-18.5c0-8.1-1.7-14.2-5.2-18.2c-3.4-4-8-6-13.7-6c-5.7,0-10.3,2-13.8,6.1
		C1184,1126.6,1182.3,1132.7,1182.3,1140.8L1182.3,1140.8z M1168.1,1141.3c0-7.2,1-13.3,3.1-18.2c1.5-3.6,3.7-6.9,6.4-9.7
		s5.6-5,8.8-6.4c4.3-1.9,9.2-2.8,14.7-2.8c10.1,0,18.1,3.2,24.2,9.7c6,6.5,9.1,15.5,9.1,27c0,11.4-3,20.4-9,26.9
		c-6,6.5-14,9.7-24,9.7c-10.2,0-18.2-3.2-24.2-9.7C1171.1,1161.5,1168.1,1152.6,1168.1,1141.3L1168.1,1141.3z M1102,1176.5v-71h13.9
		v27.9h26.6v-27.9h13.9v71h-13.9v-31.1H1116v31.1H1102z"/>
	<path id="path96_1_" class="st4" d="M1187,844.7c0-13.1-3.6-22.7-10.7-28.7c-7.1-6.1-17.3-9.1-30.4-9.1h-10.6v82.4h10.2
		c13.2,0,23.3-3.5,30.5-10.7C1183.3,871.5,1187,860.2,1187,844.7z M1384.2,911.2l-27.6-71.7l-27.2,71.7H1384.2z M1483,990.4h-103
		v-10.8c4.9-0.4,10.6-1.3,17.1-2.7c6.5-1.5,9.8-3.3,9.8-5.4c0-0.8-0.1-1.6-0.2-2.5c-0.1-0.9-0.5-2.2-1.1-3.8l-16.2-40.8h-65.5
		c-1.5,3.8-3.1,8.3-5,13.3c-1.8,5.1-3.4,9.6-4.7,13.6c-1.7,5.2-2.7,8.9-3,11.2c-0.3,2.4-0.5,4-0.5,4.9c0,2.9,2.1,5.5,6.5,7.5
		c4.3,2.1,11.6,3.6,21.6,4.5v10.8h-61h-16.1h-56.6c-12.6-19.8-23-35.6-31.3-47.4c-8.3-11.8-18.7-25.3-31-40.8h-7.5v59.4
		c0,3.3,0.6,6.1,1.8,8.4c1.2,2.3,3.5,4.2,6.9,5.8c1.7,0.8,4.4,1.5,8,2.3c3.6,0.8,6.7,1.3,9.3,1.6v10.7h-100.8v-10.8
		c0,0,5.9-0.7,10.1-1.2c4.2-0.5,7.2-1.1,9-1.9c3.4-1.5,5.6-3.3,6.8-5.6c1.1-2.3,1.7-5.1,1.9-8.6V824.1c-0.2-3.3-0.7-6.1-1.6-8.3
		c-1-2.2-3.4-4.1-7.1-5.8c-2.9-1.2-6.2-2.2-10.1-3.1c-3.9-0.8-7-1.4-9.1-1.8v-10.6h106c23.7-0.1,41.7,3.8,54,11.4
		c12.3,7.7,18.5,19.3,18.5,34.9c0,13.7-3.8,24.8-11.4,33.1c-7.6,8.3-19.2,14.8-34.7,19.6c6,8.1,13.1,17.5,21.1,28.1
		c8,10.6,16.4,21.6,25.1,32.7c2.8,3.6,6.5,8,11.3,13.1c4.7,5.2,8.9,8.4,12.6,9.6c1.7,0.6,3.9,1.1,6.4,1.4c0.7-0.1,1.3-0.3,2-0.4
		c3.7-0.8,6.6-1.8,8.7-3.3c3.6-2.2,6.7-4.9,9.2-8.2c2.5-3.2,4.6-7,6.3-11.5c10.3-25.9,20.6-51.8,30.9-77.8
		c10.4-26,34.3-85.8,34.3-85.8h26.7c17.4,44.4,31,79.5,40.8,105.3c9.9,25.8,18.2,47.2,25.1,64.1c1.2,2.8,2.6,5.3,4.4,7.5
		c1.8,2.3,4.3,4.4,7.6,6.4c2.5,1.5,5.4,2.6,8.6,3.3c3.3,0.7,6.3,1.2,8.9,1.4V990.4z M1618.1,935.7c0-13.6-3.9-24.1-11.7-31.4
		c-7.8-7.3-19-10.9-33.7-10.9c-1.7,0-3.9,0-6.7,0.2c-2.8,0.1-4.9,0.3-6.2,0.4v71.8c0.8,3.4,3.3,6.3,7.5,8.6
		c4.2,2.4,9.2,3.5,15.2,3.5c10.6,0,19.2-3.7,25.8-11.1C1614.8,959.5,1618.1,949.1,1618.1,935.7L1618.1,935.7z M1608.8,841.4
		c0-10.9-3-19.4-8.9-25.4c-5.9-6.1-14.8-9.1-26.6-9.1c-1.7,0-3.9,0-6.6,0.2c-2.7,0.1-5,0.3-7,0.4v72.7h7c14.4,0,25-3.5,31.9-10.4
		C1605.4,862.7,1608.8,853.3,1608.8,841.4L1608.8,841.4z M1651.9,900.4c5.7,4.1,10.3,9.2,13.9,15.3c3.6,6.1,5.3,13.4,5.3,21.7
		c0,10-2,18.4-6.1,25.2c-4.1,6.8-9.9,12.3-17.5,16.2c-8,4.2-17.2,7.2-27.7,9c-10.5,1.7-22.8,2.6-36.9,2.6h-98.4v-10.8
		c2.8-0.3,6.2-0.7,10.5-1.2c4.2-0.6,7.1-1.2,8.8-1.9c3.3-1.4,5.6-3.2,6.7-5.5c1.2-2.3,1.8-5.2,1.8-8.8V824c0-3.3-0.5-6.1-1.5-8.3
		c-1-2.2-3.4-4.2-7.1-5.8c-2.8-1.2-6-2.2-9.7-3c-3.7-0.8-6.9-1.4-9.7-1.9v-10.8h102.6c25.8,0,44.5,3.7,55.9,11
		c11.5,7.4,17.2,18.3,17.2,32.7c0,6.6-1.3,12.5-3.9,17.5c-2.5,5-6.2,9.4-11.1,13.1c-4.3,3.4-9.5,6.4-15.6,8.8
		c-6,2.5-12.5,4.6-19.4,6.2v2.7c7,0.7,14.1,2.3,21.6,4.8c7.5,2.4,14,5.6,19.5,9.4H1651.9z M964.4,996.1c-13.8,0-26.8-2.3-38.9-7
		c-12.1-4.7-22.6-11.4-31.5-20.3c-8.8-8.7-15.7-19.4-20.8-32.2c-5.1-12.8-7.6-26.9-7.6-42.1c0-15.2,2.5-29.4,7.7-42.3
		c5.1-12.9,12.3-24.2,21.5-33.7c9.1-9.3,20-16.6,32.7-21.7c12.7-5.1,26.4-7.7,40.9-7.7c10.5,0,20,1.3,28.7,4
		c8.6,2.6,15.9,5.7,21.9,9l8.3-7.6h11.5l1.1,71.6H1028c-6.6-21.9-14.7-38-24-48.3c-9.3-10.2-20.7-15.4-34.1-15.4
		c-16.7,0-29.4,7.6-38.1,22.9c-8.7,15.3-13.1,36.8-13.1,64.4c0,15.6,1.5,29,4.5,40c3,11,6.9,19.9,11.7,26.7
		c5.1,7,11.2,12.2,18.3,15.5c7,3.3,14.7,4.9,23.3,4.9c12.4,0,23.5-3.5,33.2-10.6c9.7-7,18.6-17.6,26.6-31.9l11.5,7.2
		c-3.8,8.1-8.2,15.4-13.1,21.8c-4.9,6.4-10.5,11.9-16.9,16.6c-7,5-14.7,9-23.3,11.9C985.9,994.7,975.9,996.1,964.4,996.1"/>
</g>
</svg>
